<?xml version="1.0" encoding="utf-8"?>
<!-- Generator: Adobe Illustrator 27.5.0, SVG Export Plug-In . SVG Version: 6.00 Build 0)  -->
<svg version="1.1" xmlns="http://www.w3.org/2000/svg" xmlns:xlink="http://www.w3.org/1999/xlink" x="0px" y="0px"
	 viewBox="0 0 500 500" style="enable-background:new 0 0 500 500;" xml:space="preserve">
<g id="BACKGROUND">
	<rect style="fill:#FFFFFF;" width="500" height="500"/>
</g>
<g id="OBJECTS">
	<g>
		<g>
			<g>
				<g>
					<path style="fill:#D0F7F0;" d="M147.594,123.092c-28.407-12.042-121.281,18.189-105.997,48.671
						C60.827,210.117,175.637,134.98,147.594,123.092z"/>
					<path style="opacity:0.31;fill:#B7E2DA;" d="M147.593,123.092c-24.099-10.216-94.584,9.994-106.078,34.969
						c25.298-16.775,72.059-27.218,90.792-19.277c5.507,2.334,5.503,7.108,1.799,12.981
						C149.496,139.508,157.551,127.313,147.593,123.092z"/>
				</g>
				<g>
					<path style="fill:#D0F7F0;" d="M53.41,294.581c-39.13,26.654-3.939,69.352,7.673,88.468h399.956
						c21.751-26.344-35.247-71.486-17.462-112.287c19.282-44.234-0.127-88.968-42.533-85.633
						c-50.472,3.97-66.351-35.161-147.447-77.126c-59.537-30.809-104.914,68.62-178.638,90.17
						C1.237,219.723,90.107,269.584,53.41,294.581z"/>
					<path style="opacity:0.42;fill:#B7E2DA;" d="M443.578,270.762c19.281-44.234-0.127-88.968-42.533-85.633
						c-50.472,3.97-66.351-35.161-147.447-77.126c-8.12-4.202-15.976-5.967-23.677-5.851c20.223,7.098,44.038,24.346,68.145,61.637
						c56.555,87.484,137.734,36.758,95.725,94.521c-21.417,29.448-73.446,67.017-59.244,124.738h126.493
						C482.79,356.705,425.793,311.563,443.578,270.762z"/>
				</g>
			</g>
			<g>
				<g>
					<g>
						<g>
							<g>
								<path style="fill:#DE4ED1;" d="M383.822,185.014"/>
							</g>
							<g>
								<path style="fill:#69B7A8;" d="M393.461,174.711L393.461,174.711c16.863-5.514,35.859-4.967,52.979,0.988
									c-10.163,13.761-24.568,24.477-40.985,30.489c-12.959,4.745-28.073,7.103-42.118,5.216
									c-17.509-2.353,3.483-21.475,8.88-25.573C378.564,181.011,385.77,177.226,393.461,174.711z"/>
							</g>
							<path style="fill:#509AA0;" d="M352.43,210.481c6.412-3.789,12.985-7.314,19.695-10.577c3.718,0.76,7.239,2.056,10.606,3.923
								c0.209,0.116,0.335-0.214,0.127-0.329c-3.258-1.806-6.653-3.068-10.228-3.845c4.881-2.361,9.84-4.574,14.862-6.651
								c4.482,1.418,9.004,2.631,13.572,3.638c0.23,0.051,0.262-0.306,0.033-0.357c-4.408-0.971-8.771-2.137-13.099-3.494
								c6.245-2.569,12.597-4.907,19.035-7.027c4.697,1.298,9.394,2.596,14.091,3.893c0.228,0.063,0.259-0.294,0.033-0.357
								c-4.506-1.245-9.012-2.49-13.518-3.735c10.023-3.276,20.257-6.016,30.663-8.174c0.223-0.046,0.164-0.406-0.061-0.359
								c-10.483,2.174-20.79,4.937-30.883,8.243c2.045-3.636,4.499-6.94,7.372-9.948c0.155-0.163-0.139-0.392-0.293-0.231
								c-2.979,3.119-5.507,6.561-7.601,10.351c-6.401,2.11-12.716,4.434-18.926,6.986c2.154-5,5.014-9.552,8.551-13.644
								c0.147-0.171-0.147-0.401-0.293-0.231c-3.643,4.215-6.571,8.91-8.754,14.079c-0.032,0.006-0.059,0.02-0.083,0.039
								c-5.061,2.093-10.058,4.326-14.977,6.708c0.578-3.573,1.515-7.015,2.814-10.352c0.082-0.212-0.257-0.361-0.339-0.149
								c-1.343,3.452-2.299,7.002-2.879,10.702c-6.729,3.271-13.32,6.806-19.75,10.606
								C352.006,210.301,352.237,210.595,352.43,210.481z"/>
						</g>
					</g>
					<g>
						<g>
							<g>
								<path style="fill:#DE4ED1;" d="M339.302,159.521"/>
							</g>
							<g>
								<path style="fill:#69B7A8;" d="M332.688,147.955L332.688,147.955c-0.281-16.752,5.501-33.742,15.641-47.533
									c9.589,13.002,15.249,28.984,16.103,45.474c0.675,13.015-1.405,27.311-7.019,39.46c-6.998,15.145-18.41-9.121-20.605-15.133
									C334.226,163.151,332.816,155.596,332.688,147.955z"/>
							</g>
							<path style="fill:#509AA0;" d="M353.544,194.94c-1.634-6.841-2.985-13.754-4.061-20.717c1.721-3.143,3.871-5.96,6.492-8.479
								c0.163-0.157-0.099-0.362-0.261-0.206c-2.536,2.437-4.621,5.15-6.317,8.159c-0.772-5.062-1.388-10.153-1.865-15.263
								c2.527-3.65,4.881-7.393,7.061-11.235c0.11-0.193-0.203-0.322-0.313-0.129c-2.104,3.707-4.371,7.32-6.8,10.847
								c-0.579-6.351-0.921-12.733-1.042-19.134c2.479-3.877,4.957-7.754,7.436-11.632c0.12-0.188-0.193-0.315-0.313-0.129
								c-2.378,3.719-4.756,7.439-7.134,11.159c-0.166-9.957,0.21-19.955,1.16-29.946c0.02-0.214-0.321-0.261-0.341-0.045
								c-0.957,10.065-1.332,20.136-1.16,30.163c-2.712-2.857-5.01-5.992-6.925-9.422c-0.104-0.186-0.393,0.017-0.29,0.2
								c1.986,3.557,4.388,6.796,7.224,9.741c0.122,6.363,0.461,12.709,1.035,19.023c-3.912-3.336-7.224-7.184-9.932-11.515
								c-0.113-0.181-0.402,0.021-0.29,0.2c2.789,4.461,6.211,8.41,10.268,11.819c-0.004,0.03,0.002,0.059,0.013,0.085
								c0.48,5.15,1.103,10.281,1.884,15.383c-3.063-1.517-5.908-3.32-8.559-5.421c-0.168-0.133-0.397,0.131-0.229,0.265
								c2.742,2.173,5.679,4.024,8.857,5.577c1.079,6.983,2.433,13.915,4.072,20.776
								C353.264,195.272,353.593,195.146,353.544,194.94z"/>
						</g>
					</g>
					<g>
						<g>
							<path style="fill:#509AA0;" d="M349.809,167.294c-0.37-7.089,1.346-14.275,4.879-20.433c1.27-2.213,2.849-4.367,5.098-5.571
								c2.249-1.204,5.301-1.209,7.129,0.571c1.077,1.049,1.59,2.534,2.034,3.97c1.266,4.093,2.266,8.267,2.992,12.489
								c-0.697-7.419-0.839-14.954,0.564-22.273c0.808-4.211,2.321-8.611,5.777-11.148c1.615-1.186,3.853-1.868,5.621-0.924
								c0.893,0.477,1.543,1.301,2.119,2.133c1.614,2.333,2.859,4.92,3.673,7.637c-1.521-4.681,0.343-9.743,2.456-14.189
								c2.665-5.606,6.005-11.249,11.348-14.409c3.181-1.881,7.686-2.562,10.273,0.077c2.384,2.432,1.955,6.51,0.427,9.553
								c-1.528,3.043-3.94,5.594-5.315,8.709c2.155-1.147,4.348-2.307,6.739-2.795s5.054-0.217,6.979,1.284
								c2.738,2.136,3.26,6.267,2.027,9.514c-1.233,3.247-3.853,5.758-6.575,7.915c-4.761,3.773-10.053,6.811-15.34,9.802
								c2.2,1.476,5.736,0.111,7.478,2.108c0.728,0.834,0.876,2.028,0.808,3.133c-0.265,4.288-3.251,7.968-6.701,10.53
								c-3.449,2.562-7.438,4.305-10.993,6.717c-0.293,0.198-0.611,0.451-0.631,0.804c-0.025,0.46,0.461,0.766,0.889,0.938
								c1.396,0.561,3.015,0.911,3.898,2.129c1.402,1.935,0.037,4.65-1.581,6.408c-6.479,7.037-16.448,9.412-25.795,11.443
								c-4.395,0.955-10.223,1.002-13.996-1.445C356.091,191.971,350.261,175.962,349.809,167.294z"/>
						</g>
						<path style="fill:#368499;" d="M374.927,169.27c7.555-2.917,14.847-6.465,21.803-10.611c0.407-0.242,0.006-0.858-0.399-0.616
							c-6.648,3.962-13.602,7.372-20.804,10.204c6.904-9.248,13.484-18.737,19.721-28.45c1.134-1.766,2.255-3.54,3.366-5.32
							c3.402-1.052,6.803-2.104,10.205-3.156c0.453-0.14,0.224-0.838-0.227-0.699c-3.129,0.967-6.257,1.935-9.386,2.903
							c2.609-4.203,5.156-8.444,7.639-12.723c0.237-0.408-0.422-0.733-0.659-0.325c-2.626,4.525-5.327,9.006-8.095,13.444
							c-0.026,0.029-0.047,0.061-0.06,0.096c-3.025,4.848-6.134,9.642-9.325,14.381c-1.524-2.736-2.13-5.836-1.736-8.951
							c0.059-0.466-0.66-0.615-0.72-0.145c-0.431,3.403,0.249,6.771,1.974,9.738c0.008,0.014,0.018,0.025,0.027,0.037
							c-7.793,11.532-16.077,22.73-24.825,33.559c-2.818-9.164-1.415-18.884,0.174-28.154c0.08-0.465-0.64-0.612-0.72-0.145
							c-1.637,9.547-3.058,19.567-0.009,28.984c-0.419,0.517-0.834,1.036-1.255,1.551c-4.646,5.682-9.421,11.257-14.314,16.727
							c-0.315,0.352,0.233,0.841,0.549,0.488c5.381-6.015,10.612-12.161,15.691-18.431c0.027-0.024,0.05-0.052,0.069-0.084
							c3.798-4.691,7.507-9.455,11.131-14.283C374.797,169.299,374.859,169.296,374.927,169.27z"/>
					</g>
				</g>
				<line style="fill:#509AA0;" x1="276.115" y1="179.163" x2="295.129" y2="179.163"/>
				<g>
					<g>
						<g>
							<path style="fill:#509AA0;" d="M132.875,356.714c0,0,2.625-2.627,0.863-12.592c-1.762-9.965-6.232-19.534-4.039-30.344
								c2.193-10.811,19.387-38.069,19.445-39.882c0.058-1.813,5.305,31.711-3.587,44.917c-8.892,13.206-9.962,17.787-9.567,24.732
								c0.395,6.945-0.092,12.537-1.067,14.152L132.875,356.714z"/>
							<path style="fill:#368499;" d="M134.502,336.671c1.034,4.445,1.658,15.591,0.006,18.259
								c-0.154,0.249-0.376,0.107-0.652-0.353c0.503-1.843,0.834-5.072-0.118-10.456c-1.762-9.965-6.232-19.534-4.039-30.344
								c2.193-10.811,19.387-38.069,19.445-39.882c0,0-2.591,22.711-11.317,38.342C131.58,323.429,133.468,332.226,134.502,336.671z
								"/>
						</g>
						<g>
							<path style="fill:#509AA0;" d="M129.474,354.693c0,0,5.051-13.511-3.509-25.21c-8.56-11.699-22.252-26.72-22.525-32.671
								c0,0-3.518,28.253,7.624,36.251c11.143,7.998,18.957,9.274,17.025,21.579L129.474,354.693z"/>
							<path style="fill:#368499;" d="M117.447,327.384c12.425,9.689,13.44,20.849,11.513,26.026
								c-0.15,0.403-0.434,0.648-0.809,0.78c1.666-11.878-6.085-13.229-17.087-21.125c-11.143-7.998-7.624-36.251-7.624-36.251
								S105.022,317.695,117.447,327.384z"/>
						</g>
						<g>
							<path style="fill:#509AA0;" d="M126.717,355.362c0,0-3.134-12.459-10.886-14.136c-7.752-1.677-16.654-13.949-17.134-16.356
								C98.697,324.87,100.004,348.014,126.717,355.362z"/>
							<path style="fill:#368499;" d="M116.274,345.345c4.75,2.544,6.725,5.966,7.426,9.073
								c-23.784-8.194-25.004-29.548-25.004-29.548c0.095,0.476,0.529,1.346,1.208,2.434
								C102.237,331.682,107.884,340.851,116.274,345.345z"/>
						</g>
						<g>
							<path style="fill:#509AA0;" d="M137.169,356.243c0,0-1.372-13.425,8.756-22.157c10.128-8.732,25.494-19.341,27.074-24.695
								c0,0-3.293,26.498-14.845,31.284c-11.553,4.787-18.677,4.201-19.762,15.831L137.169,356.243z"/>
							<path style="fill:#368499;" d="M153.85,334.08c-13.055,6.039-16.461,15.968-15.941,21.11c0.04,0.4,0.233,0.687,0.532,0.89
								c1.221-11.181,8.307-10.678,19.713-15.404c11.552-4.787,14.845-31.284,14.845-31.284S166.906,328.041,153.85,334.08z"/>
						</g>
					</g>
					<g>
						<path style="fill:#90D6CA;" d="M148.844,352.655h-36.418l4.325,27.2c0.328,2.063,2.107,3.581,4.196,3.581h19.376
							c2.089,0,3.868-1.518,4.196-3.581L148.844,352.655z"/>
						<polygon style="fill:#69B7A8;" points="148.129,357.155 148.844,352.655 112.426,352.655 113.142,357.155 						"/>
						<path style="fill:#69B7A8;" d="M140.021,352.655l-4.325,27.2c-0.328,2.063-2.107,3.581-4.196,3.581h8.823
							c2.089,0,3.868-1.518,4.196-3.581l4.325-27.2H140.021z"/>
					</g>
				</g>
				<g>
					<path style="fill:#FFFFFF;" d="M367.328,157.818H87.542c-1.443,0-2.613,1.17-2.613,2.613v107.354
						c0,1.443,1.17,2.613,2.613,2.613h279.786c1.443,0,2.613-1.17,2.613-2.613V160.432
						C369.942,158.988,368.772,157.818,367.328,157.818z"/>
					<g>
						<path style="fill:#BFF2EB;" d="M358.783,235.271v21.193H255.284v-26.417c4.703,0,4.703,5.225,9.407,5.225
							c4.706,0,4.706-10.822,9.41-10.822s4.703,18.099,9.41,18.099c4.703,0,4.703-12.501,9.407-12.501
							c4.703,0,4.703,8.396,9.407,8.396c4.706,0,4.706-3.545,9.41-3.545c4.704,0,4.704,5.038,9.41,5.038
							c4.704,0,4.704-5.131,9.41-5.131c4.703,0,4.703,11.848,9.407,11.848c4.706,0,4.706-21.551,9.412-21.551
							C354.076,225.102,354.076,235.271,358.783,235.271z"/>
						<g>
							<path style="fill:#BFF2EB;" d="M238.238,194.965c0,0.057,0,0.122-0.008,0.179c-0.089,12.243-10.039,22.136-22.307,22.136
								c-12.325,0-22.314-9.99-22.314-22.314c0-12.325,9.99-22.315,22.314-22.315C228.248,172.65,238.238,182.64,238.238,194.965z"
								/>
							<path style="fill:#509AA0;" d="M238.238,194.965c0,0.057,0,0.122-0.008,0.179h-22.307V172.65
								C228.248,172.65,238.238,182.64,238.238,194.965z"/>
						</g>
						<g>
							<rect x="246.51" y="177.902" style="fill:#509AA0;" width="18.543" height="1.528"/>
							<rect x="246.51" y="189.411" style="fill:#509AA0;" width="18.543" height="1.528"/>
							<rect x="246.51" y="200.527" style="fill:#509AA0;" width="18.543" height="1.528"/>
							<rect x="246.51" y="211.709" style="fill:#509AA0;" width="8.309" height="1.528"/>
							<line style="fill:#509AA0;" x1="246.51" y1="179.43" x2="265.053" y2="179.43"/>
							<line style="fill:#509AA0;" x1="265.053" y1="177.902" x2="246.51" y2="177.902"/>
							<line style="fill:#509AA0;" x1="246.51" y1="190.939" x2="265.053" y2="190.939"/>
							<line style="fill:#509AA0;" x1="265.053" y1="189.411" x2="246.51" y2="189.411"/>
							<line style="fill:#509AA0;" x1="246.51" y1="202.056" x2="265.053" y2="202.056"/>
							<line style="fill:#509AA0;" x1="265.053" y1="200.527" x2="246.51" y2="200.527"/>
							<polyline style="fill:#509AA0;" points="246.51,213.238 254.819,213.238 254.819,211.709 246.51,211.709 							"/>
						</g>
						<g>
							<rect x="331.386" y="177.902" style="fill:#509AA0;" width="18.544" height="1.528"/>
							<rect x="331.386" y="189.411" style="fill:#509AA0;" width="18.544" height="1.528"/>
							<rect x="331.386" y="200.527" style="fill:#509AA0;" width="18.544" height="1.528"/>
							<rect x="331.386" y="211.709" style="fill:#509AA0;" width="8.309" height="1.528"/>
							<line style="fill:#509AA0;" x1="331.386" y1="179.43" x2="349.93" y2="179.43"/>
							<line style="fill:#509AA0;" x1="349.93" y1="177.902" x2="331.386" y2="177.902"/>
							<line style="fill:#509AA0;" x1="331.386" y1="190.939" x2="349.93" y2="190.939"/>
							<line style="fill:#509AA0;" x1="349.93" y1="189.411" x2="331.386" y2="189.411"/>
							<line style="fill:#509AA0;" x1="331.386" y1="202.056" x2="349.93" y2="202.056"/>
							<line style="fill:#509AA0;" x1="349.93" y1="200.527" x2="331.386" y2="200.527"/>
							<polyline style="fill:#509AA0;" points="331.386,213.238 339.695,213.238 339.695,211.709 331.386,211.709 							"/>
						</g>
						<g>
							<rect x="194.62" y="228.458" style="fill:#509AA0;" width="6.934" height="28.006"/>
							<rect x="208.693" y="240.273" style="fill:#90D6CA;" width="6.934" height="16.191"/>
							<rect x="221.134" y="246.4" style="fill:#509AA0;" width="6.934" height="10.065"/>
							<rect x="232.759" y="238.523" style="fill:#90D6CA;" width="6.934" height="17.941"/>
						</g>
						<path style="fill:#BFF2EB;" d="M303.423,172.647c-12.325,0-22.315,9.991-22.315,22.316c0,6.192,2.522,11.791,6.598,15.836
							c4.026,4.006,9.585,6.479,15.718,6.479c12.266,0,22.216-9.892,22.305-22.137c0.01-0.049,0.01-0.119,0.01-0.178
							C325.738,182.638,315.748,172.647,303.423,172.647z M317.528,195.082c-0.059,7.735-6.35,13.997-14.105,13.997
							c-3.868,0-7.369-1.563-9.911-4.085c-2.592-2.552-4.194-6.103-4.194-10.03c0-7.795,6.311-14.105,14.105-14.105
							c7.794,0,14.105,6.311,14.105,14.105V195.082z"/>
						<path style="fill:#90D6CA;" d="M325.738,194.963c0,0.059,0,0.129-0.01,0.178c-0.089,12.246-10.04,22.137-22.305,22.137
							c-6.133,0-11.692-2.473-15.718-6.479l5.806-5.806c2.542,2.522,6.044,4.085,9.911,4.085c7.755,0,14.046-6.261,14.105-13.997
							v-0.119c0-7.795-6.311-14.105-14.105-14.105v-8.21C315.748,172.647,325.738,182.638,325.738,194.963z"/>
					</g>
					<path style="fill:#BFF2EB;" d="M168.851,170.353h-63.862c-3.754,0-6.797,3.043-6.797,6.797v75.677
						c0,3.754,3.043,6.797,6.797,6.797h63.862c3.754,0,6.797-3.043,6.797-6.797V177.15
						C175.647,173.396,172.604,170.353,168.851,170.353z"/>
					<g>
						<g>
							<g>
								<path style="fill:#FFA683;" d="M189.708,174.915c0,0,2.649-5.43,3.596-5.7c0.948-0.269,0.083,2.19,0.083,2.19
									s3.301-2.53,5.908-2.171c2.607,0.359-4.812,5.055-5.546,7.581C193.748,176.816,189.547,174.933,189.708,174.915z"/>
								<path style="fill:#1C4772;" d="M157.052,259.623h-41.043c0.069-10.927,2.457-20.328,4.25-25.985
									c1.149-3.626,2.328-5.686,2.328-5.686l31.711,0.02C156.557,232.598,157.032,248.151,157.052,259.623z"/>
								<path style="fill:#1C4772;" d="M189.324,174.584l-15.679,18.81l-15.098-11.979c0,0-3.398-2.37-15.908-3.432l-8.734-0.31
									c-2.752,0.47-17.777,3.895-20.338,5.676c-2.202,1.529-14.137,28.663-14.012,31.43c0.163,3.577,10.999,22.893,15.448,30.408
									c2.846-2.277,3.415-2.033,5.203-3.74c-3.05-7.813-9.82-24.055-8.781-26.505c1.777-4.185,7.836-11.434,8.876-13.399
									c0.111,1.8,0.681,9.196,2.786,14.842c1.552,4.166-0.745,11.601-2.859,17.281l1.249,0.339
									c11.291,3.059,23.207,2.942,34.436-0.339l0,0c-0.034-6.345-0.069-15.859,0.042-16.868c0.172-1.533,1.514-4.078,3.043-7.484
									c1.513-3.356-2.427-11.448-2.531-11.662l16.321,11.933c1.246,0.65,2.783,0.183,3.459-1.047l18.232-31.523L189.324,174.584z"
									/>
								<path style="fill:#5FBBF9;" d="M189.324,174.584l-15.679,18.81l-15.098-11.979c0,0-3.398-2.37-15.908-3.432l-8.734-0.31
									c-2.752,0.47-17.777,3.895-20.338,5.676c-2.202,1.529-14.137,28.663-14.012,31.43c0.163,3.577,10.999,22.893,15.448,30.408
									c2.846-2.277,3.415-2.033,5.203-3.74c-3.05-7.813-9.82-24.055-8.781-26.505c1.777-4.185,7.836-11.434,8.876-13.399
									c0.111,1.8,0.681,9.196,2.786,14.842c1.552,4.166-0.745,11.601-2.859,17.281l1.249,0.339
									c11.291,3.059,23.207,2.942,34.436-0.339l0,0c-0.034-6.345-0.069-15.859,0.042-16.868c0.172-1.533,1.514-4.078,3.043-7.484
									c1.513-3.356-2.427-11.448-2.531-11.662l16.321,11.933c1.246,0.65,2.783,0.183,3.459-1.047l18.232-31.523L189.324,174.584z"
									/>
							</g>
							<g>
								<polyline style="fill:none;" points="143.112,147.421 143.231,147.401 143.419,147.371 								"/>
								<g>
									<path style="fill:#202223;" d="M140.343,147.861c0,0-7.556-2.333-12.03,1.266c-5.398,4.342-0.62,23.353-6.318,25.632
										c0,0,17.462,5.14,31.645-1.065c0,0-3.166-6.965-2.659-12.283C151.487,156.092,149.587,142.542,140.343,147.861z"/>
									<g>
										<g>
											<path style="fill:#FFA683;" d="M133.305,168.319v9.628l5.672,4.056l3.825-3.685l-0.091-3.949
												c-0.478,0.099-0.973,0.148-1.476,0.148c-3.693,0-6.801-2.638-7.691-6.216
												C133.462,168.319,133.388,168.319,133.305,168.319z"/>
											<path style="fill:#FFA683;" d="M131.014,162.105c1.121-1.197,2.42-0.229,2.42-0.229s0.018,0.019,0.05,0.055
												c3.326-0.789,7.963-4.319,7.963-4.319c3.13,1.891,7.739,1.649,7.739,1.649v6.938c0,4.596-3.559,8.322-7.949,8.322
												c-3.696,0-6.803-2.642-7.692-6.22C130.811,168.678,129.909,163.286,131.014,162.105z"/>
										</g>
										<path style="fill:#F48260;" d="M141.236,174.518c0.507,0,0.997-0.066,1.477-0.162l0.089,3.962l-2.464,2.377v-4.644
											c-6.356,0-6.793-7.749-6.793-7.749C134.435,171.88,137.543,174.518,141.236,174.518z"/>
									</g>
									<path style="fill:#0D7BFF;" d="M133.453,159.824l-1.972-0.218c0.515-12.968,8-11.904,8.872-11.755
										C131.766,149.04,133.453,159.824,133.453,159.824z"/>
									<g>
										<path style="fill:#0D7BFF;" d="M136.663,164.035c0-2.791-1.796-5.053-4.012-5.053c-2.216,0-4.012,2.262-4.012,5.053
											s1.796,5.053,4.012,5.053C134.867,169.087,136.663,166.825,136.663,164.035z"/>
										<path style="fill:#FFFFFF;" d="M133.835,164.035c0-1.099-0.707-1.989-1.579-1.989c-0.872,0-1.579,0.891-1.579,1.989
											s0.707,1.989,1.579,1.989C133.127,166.024,133.835,165.133,133.835,164.035z"/>
										<path style="fill:#0C67C1;" d="M132.651,158.981c-0.213,0-0.418,0.039-0.623,0.079c1.918,0.379,3.389,2.452,3.389,4.974
											s-1.471,4.595-3.389,4.974c0.204,0.04,0.409,0.079,0.623,0.079c2.216,0,4.012-2.262,4.012-5.053
											C136.663,161.244,134.867,158.981,132.651,158.981z"/>
									</g>
								</g>
							</g>
							<path style="fill:#FFA683;" d="M122.146,246.901c0.163-0.334-2.174-4.714-2.358-4.968c-0.014-0.058-0.022-0.118-0.037-0.176
								l-4.345,3.073c0,0,3.573,6.786,4.32,6.654c0.509-0.09,0.071-2.562,0.311-5.5C121.047,246.345,122.03,247.137,122.146,246.901
								z"/>
						</g>
						<path style="fill:#41ABE5;" d="M154.075,211.526c-2.023,2.682-2.629,12.703-2.934,23.328c1.602-0.336,3.195-0.728,4.773-1.189
							c-0.034-6.345-0.069-15.859,0.042-16.868c0.172-1.533,1.514-4.078,3.043-7.484c0.894-1.982-0.115-5.609-1.112-8.296
							l-1.419-3.366l-1.649-3.543C154.818,194.109,158.641,205.472,154.075,211.526z"/>
						<path style="fill:#0D3A5E;" d="M151.027,259.623h6.025c-0.015-8.459-0.278-19.133-1.32-26.013l-4.591,1.244
							C151.14,234.854,151.12,250.585,151.027,259.623z"/>
						<path style="fill:#0D3A5E;" d="M156.041,235.905c-18.206,6.925-31.87,1.249-36.173-1.001c0.124-0.407,0.239-0.797,0.363-1.169
							l0.15-0.027l1.098,0.292c11.237,3.046,23.094,2.949,34.269-0.292C155.855,234.408,155.952,235.143,156.041,235.905z"/>
					</g>
				</g>
				<g>
					<path style="fill:#509AA0;" d="M66.524,345.181v-4.234c0-0.47-0.33-0.876-0.791-0.971l-3.504-0.723
						c-0.218-0.687-0.495-1.347-0.822-1.977l1.968-2.991c0.258-0.393,0.205-0.913-0.127-1.246l-2.994-2.994
						c-0.333-0.333-0.853-0.386-1.246-0.127l-2.991,1.968c-0.63-0.327-1.29-0.604-1.977-0.822l-0.723-3.504
						c-0.095-0.461-0.5-0.791-0.971-0.791h-4.234c-0.47,0-0.876,0.331-0.971,0.791l-0.723,3.504
						c-0.687,0.218-1.347,0.495-1.977,0.822l-2.992-1.968c-0.393-0.259-0.913-0.205-1.246,0.127l-2.994,2.994
						c-0.333,0.333-0.386,0.853-0.127,1.246l1.968,2.991c-0.327,0.63-0.604,1.29-0.822,1.977l-3.504,0.723
						c-0.461,0.095-0.791,0.501-0.791,0.971v4.234c0,0.47,0.33,0.876,0.791,0.971l3.504,0.723c0.218,0.687,0.495,1.347,0.822,1.977
						l-1.968,2.992c-0.258,0.393-0.205,0.913,0.127,1.246l2.994,2.994c0.333,0.333,0.853,0.386,1.246,0.127l2.992-1.968
						c0.63,0.327,1.29,0.604,1.977,0.822l0.723,3.504c0.095,0.461,0.501,0.791,0.971,0.791h4.234c0.47,0,0.876-0.331,0.971-0.791
						l0.723-3.504c0.687-0.218,1.347-0.495,1.977-0.822l2.991,1.968c0.393,0.259,0.913,0.205,1.246-0.127l2.994-2.994
						c0.333-0.333,0.386-0.853,0.127-1.246l-1.968-2.992c0.327-0.63,0.604-1.29,0.822-1.977l3.504-0.723
						C66.194,346.057,66.524,345.651,66.524,345.181z M50.72,349.082c-3.72,0.293-6.802-2.788-6.508-6.508
						c0.231-2.927,2.602-5.298,5.528-5.528c3.72-0.293,6.801,2.788,6.508,6.508C56.018,346.481,53.646,348.852,50.72,349.082z"/>
					<g>
						<path style="fill:#368499;" d="M93.089,305.11v-6.22c0-0.691-0.485-1.287-1.162-1.426l-5.147-1.062
							c-0.32-1.009-0.727-1.978-1.207-2.904l2.892-4.394c0.38-0.577,0.302-1.341-0.187-1.83l-4.398-4.398
							c-0.488-0.489-1.253-0.567-1.83-0.187l-4.395,2.892c-0.926-0.48-1.895-0.887-2.904-1.207l-1.062-5.147
							c-0.14-0.677-0.735-1.162-1.426-1.162h-6.22c-0.691,0-1.286,0.485-1.426,1.162l-1.062,5.147
							c-1.009,0.32-1.978,0.727-2.904,1.207l-4.394-2.892c-0.577-0.38-1.341-0.302-1.83,0.187l-4.398,4.398
							c-0.488,0.488-0.566,1.253-0.187,1.83l2.891,4.394c-0.48,0.925-0.887,1.895-1.207,2.904l-5.147,1.062
							c-0.677,0.14-1.162,0.735-1.162,1.426v6.22c0,0.691,0.485,1.286,1.162,1.426l5.147,1.062c0.32,1.009,0.727,1.978,1.207,2.904
							l-2.891,4.395c-0.38,0.577-0.302,1.341,0.187,1.83l4.398,4.398c0.489,0.488,1.253,0.566,1.83,0.187l4.394-2.892
							c0.926,0.48,1.895,0.887,2.904,1.207l1.062,5.147c0.14,0.677,0.735,1.162,1.426,1.162h6.22c0.691,0,1.286-0.485,1.426-1.162
							l1.062-5.147c1.009-0.32,1.978-0.727,2.904-1.207l4.395,2.892c0.577,0.38,1.341,0.302,1.83-0.187l4.398-4.398
							c0.489-0.489,0.567-1.253,0.187-1.83l-2.892-4.395c0.48-0.926,0.887-1.895,1.207-2.904l5.147-1.062
							C92.604,306.397,93.089,305.801,93.089,305.11z M69.781,309.712c-4.767,0.376-8.716-3.573-8.34-8.34
							c0.296-3.75,3.334-6.789,7.084-7.084c4.767-0.376,8.716,3.573,8.34,8.34C76.57,306.378,73.531,309.417,69.781,309.712z"/>
					</g>
					<g>
						<path style="fill:#509AA0;" d="M432.865,250.488v-6.109c0-0.678-0.477-1.264-1.141-1.401l-5.056-1.043
							c-0.314-0.991-0.714-1.943-1.185-2.852l2.84-4.316c0.373-0.567,0.296-1.317-0.183-1.797l-4.32-4.32
							c-0.48-0.48-1.231-0.556-1.797-0.184l-4.316,2.84c-0.909-0.472-1.861-0.871-2.852-1.186l-1.043-5.056
							c-0.137-0.664-0.722-1.141-1.401-1.141h-6.109c-0.679,0-1.264,0.477-1.401,1.141l-1.043,5.056
							c-0.991,0.314-1.943,0.714-2.852,1.186l-4.316-2.84c-0.567-0.373-1.318-0.296-1.797,0.184l-4.32,4.32
							c-0.48,0.48-0.556,1.231-0.184,1.797l2.84,4.316c-0.472,0.909-0.871,1.861-1.186,2.852l-5.056,1.043
							c-0.664,0.137-1.141,0.722-1.141,1.401v6.109c0,0.678,0.477,1.264,1.141,1.401l5.056,1.043
							c0.314,0.991,0.714,1.943,1.186,2.852l-2.84,4.316c-0.373,0.567-0.296,1.318,0.184,1.797l4.32,4.32
							c0.48,0.48,1.231,0.556,1.797,0.184l4.316-2.84c0.909,0.472,1.861,0.871,2.852,1.185l1.043,5.056
							c0.137,0.664,0.722,1.141,1.401,1.141h6.109c0.678,0,1.263-0.477,1.401-1.141l1.043-5.056
							c0.991-0.314,1.943-0.714,2.852-1.185l4.316,2.84c0.567,0.373,1.317,0.296,1.797-0.184l4.32-4.32
							c0.48-0.48,0.556-1.23,0.183-1.797l-2.84-4.316c0.472-0.909,0.871-1.861,1.185-2.852l5.056-1.043
							C432.388,251.751,432.865,251.166,432.865,250.488z M409.972,255.008c-4.682,0.369-8.56-3.509-8.191-8.191
							c0.29-3.684,3.275-6.668,6.958-6.958c4.682-0.369,8.56,3.509,8.191,8.191C416.64,251.733,413.656,254.717,409.972,255.008z"/>
					</g>
					<g>
						<path style="fill:#368499;" d="M454.586,297.83v-5.346c0-0.594-0.417-1.106-0.999-1.226l-4.424-0.913
							c-0.275-0.867-0.625-1.701-1.037-2.496l2.485-3.777c0.326-0.496,0.259-1.153-0.161-1.573l-3.78-3.78
							c-0.42-0.42-1.077-0.487-1.573-0.161l-3.777,2.485c-0.796-0.413-1.629-0.762-2.496-1.038l-0.913-4.424
							c-0.12-0.582-0.632-0.999-1.226-0.999h-5.346c-0.594,0-1.106,0.417-1.226,0.999l-0.913,4.424
							c-0.867,0.275-1.701,0.625-2.496,1.038l-3.777-2.485c-0.496-0.326-1.153-0.259-1.573,0.161l-3.78,3.78
							c-0.42,0.42-0.487,1.077-0.161,1.573l2.485,3.777c-0.413,0.796-0.762,1.629-1.038,2.496l-4.424,0.913
							c-0.582,0.12-0.999,0.632-0.999,1.226v5.346c0,0.594,0.417,1.106,0.999,1.226l4.424,0.913
							c0.275,0.867,0.625,1.701,1.038,2.496l-2.485,3.777c-0.326,0.496-0.259,1.153,0.161,1.573l3.78,3.78
							c0.42,0.42,1.077,0.487,1.573,0.16l3.777-2.485c0.796,0.413,1.629,0.762,2.496,1.037l0.913,4.424
							c0.12,0.581,0.632,0.999,1.226,0.999h5.346c0.594,0,1.106-0.417,1.226-0.999l0.913-4.424c0.867-0.275,1.7-0.625,2.496-1.037
							l3.777,2.485c0.496,0.327,1.153,0.259,1.573-0.16l3.78-3.78c0.42-0.42,0.487-1.077,0.161-1.573l-2.485-3.777
							c0.413-0.795,0.762-1.629,1.037-2.496l4.424-0.913C454.169,298.936,454.586,298.424,454.586,297.83z M434.893,305.974
							c-6.686,0.527-12.225-5.011-11.697-11.697c0.415-5.26,4.676-9.522,9.936-9.936c6.686-0.527,12.225,5.011,11.698,11.697
							C444.415,301.297,440.153,305.559,434.893,305.974z M434.526,301.466c-3.9,0.307-7.13-2.923-6.822-6.822
							c0.242-3.068,2.727-5.553,5.795-5.795c3.9-0.308,7.13,2.922,6.822,6.822C440.079,298.738,437.594,301.224,434.526,301.466z"/>
					</g>
				</g>
				<g>
					<path style="fill:#90D6CA;" d="M238.6,119.128h-71.238c-3.297,0-5.97,2.673-5.97,5.97v22.441v14.842l9.227-6.725
						c1.915-1.396,4.223-2.148,6.593-2.148H238.6c3.297,0,5.97-2.673,5.97-5.97v-22.441
						C244.569,121.8,241.897,119.128,238.6,119.128z"/>
					<g>
						<path style="fill:#509AA0;" d="M179.113,128.349c-0.325,0-0.589-0.264-0.589-0.589c0-0.325,0.264-0.59,0.589-0.59h53.437
							c0.325,0,0.589,0.264,0.589,0.59c0,0.325-0.264,0.589-0.589,0.589H179.113z"/>
						<path style="fill:#509AA0;" d="M179.113,136.892c-0.325,0-0.589-0.264-0.589-0.59c0-0.325,0.264-0.589,0.589-0.589h53.437
							c0.325,0,0.589,0.264,0.589,0.589c0,0.325-0.264,0.59-0.589,0.59H179.113z"/>
						<path style="fill:#509AA0;" d="M179.113,145.805c-0.325,0-0.589-0.265-0.589-0.59s0.264-0.589,0.589-0.589h31.206
							c0.325,0,0.589,0.264,0.589,0.589s-0.264,0.59-0.589,0.59H179.113z"/>
					</g>
				</g>
				<g>
					<path style="fill:#FFA683;" d="M308.617,324.763c-3.698,3.493-10.449,41.158-12.772,50.248l7.315-0.929l12.192-34.457
						c0,0,10.334,5.341,25.313,6.502c14.979,1.161,24.5-18.346,24.5-18.346S312.797,320.816,308.617,324.763z"/>
					<path style="fill:#4286E8;" d="M365.166,331.733c-0.585,7.194-21.367,17.067-35.652,16.024
						c-14.277-1.051-24.964-23.921-20.087-24.964c4.877-1.051,24.853,1.044,24.853,1.044s11.561,12.086,30.589,6.55
						C365.099,330.808,365.203,331.252,365.166,331.733z"/>
					<path style="fill:#2973CC;" d="M338.232,326.926c-2.578-1.654-3.951-3.089-3.951-3.089s-19.976-2.095-24.853-1.044
						c-1.517,0.324-1.527,2.761-0.393,5.994C311.785,323.907,338.117,326.913,338.232,326.926z"/>
					<path style="fill:#5FBBF9;" d="M351.386,283.659c-0.31,0.929-12.231,18.423-15.327,19.043
						c-3.096,0.619-24.306,1.393-24.306,1.393v5.264h36.847l13.82-21.752L351.386,283.659z"/>
					<g>
						<path style="fill:#509AA0;" d="M220.005,278.432h-38.147c-2.002,0-3.255,1.623-2.8,3.625l5.365,23.575
							c0.456,2.002,2.448,3.625,4.449,3.625h38.147c2.002,0,3.255-1.623,2.8-3.625l-5.365-23.575
							C223.998,280.055,222.006,278.432,220.005,278.432z"/>
						<path style="fill:#90D6CA;" d="M188.872,306.369c-0.654,0-1.479-0.696-1.635-1.379l-5.365-23.575
							c-0.008-0.037-0.014-0.069-0.017-0.098c0.001,0,38.15,0,38.15,0c0.654,0,1.48,0.696,1.635,1.379l5.365,23.574
							c0.008,0.037,0.014,0.07,0.017,0.098c-0.001,0-0.001,0-0.002,0H188.872z"/>
						<path style="fill:#368499;" d="M237.046,305.256h-52.673l0.448,1.968c0.289,1.27,1.42,2.176,2.719,2.176h48.85
							c0.843,0,1.466-0.785,1.282-1.605L237.046,305.256z"/>
					</g>
					<path style="fill:#093D60;" d="M230.765,374.539c-1.993,3.737-11.434,5.62-11.434,5.62s-0.683,1.103,0.391,2.499
						c1.075,1.396,11.007,0.547,12.252,0.293c1.245-0.253,2.104-1.181,2.104-1.181s0.834,0.835,1.3,1.042
						c0.466,0.206,3.003-0.259,3.003-0.259c0.6-1.486,0.016-7.163-0.153-8.069L230.765,374.539z"/>
					<path style="fill:#1C4772;" d="M249.795,346.039l-10.961,29.466h-8.77c0,0,3.178-16.413,5.802-30.215
						c3.143,0.259,6.677,0.546,10.513,0.84C247.556,346.221,248.689,346.186,249.795,346.039z"/>
					<path style="fill:#FFA683;" d="M342.793,341.329l-7.741,32.899l-7.276,0.929c0,0,1.239-16.643,2.942-31.815
						C333.86,343.6,341.687,341.476,342.793,341.329z"/>
					<path style="fill:#1C4772;" d="M211.749,325.263c-3.698,3.493-9.994,40.223-12.318,49.313l9.173-0.116l12.347-30.422
						c0,0,10.45,0.929,25.429,2.09c14.979,1.161,24.5-18.346,24.5-18.346S215.929,321.315,211.749,325.263z"/>
					<rect x="173.81" y="309.359" style="fill:#90D6CA;" width="230.689" height="3.948"/>
					<path style="fill:#4286E8;" d="M271.446,280.255c-1.13-1.547-2.98-2.401-4.896-2.401H245.8
						c-4.296,0-13.934,24.151-16.488,24.268c-2.555,0.116-21.326,2.09-21.326,2.09l-0.116,5.167l26.752-0.013
						c1.357,0,2.666-0.506,3.67-1.419l6.696-6.405l-8.128,23.107c0,0,13.353,12.54,34.137,4.761c0,0,4.288-5.939,3.367-21.481
						C273.617,295.326,274.896,284.976,271.446,280.255z"/>
					<g>
						<path style="fill:#5B9EEF;" d="M207.869,309.378L207.869,309.378l26.752-0.013c1.357,0,2.666-0.506,3.67-1.419l6.696-6.406
							l-8.128,23.107c0,0,1.303,1.223,3.728,2.669l8.905-30.278l-14.441,10.667L207.869,309.378z"/>
						<path style="fill:#276293;" d="M240.587,327.316l-3.155-2.675c-12.372-0.84-23.859-1.1-25.683,0.622
							c-3.698,3.493-9.994,40.223-12.317,49.313c0,0,12.646-44.937,13.959-46.906C214.703,325.701,240.587,327.316,240.587,327.316z
							"/>
					</g>
					<path style="fill:#FFA683;" d="M261.461,268.577v9.535h-8.857v-4.879c-9.463-1.652-4.507-13.663-4.507-13.663l1.353-3.005
						c0,0,9.757,5.404,9.911,5.63C259.511,262.422,261.461,268.577,261.461,268.577z"/>
					<path style="fill:#093D60;" d="M258.534,263.548c1.464,1.351,0.338,4.73-1.239,5.105c0,0-0.901,5.218,1.689,5.443
						c2.59,0.225,2.515,0.113,2.515,0.113s7.057-3.266,5.255-12.876c-0.817-4.359-5.556-10.549-11.975-8.559
						c0,0-3.717-3.003-6.119-2.065c-2.403,0.938-4.805,7.658-0.751,9.948c4.054,2.29,6.382,2.29,6.382,2.29l0.388,3.454
						C254.68,266.401,257.07,262.197,258.534,263.548z"/>
					<path style="fill:#ED8564;" d="M254.142,274.773c0.788-0.113,2.628-1.877,2.628-1.877c-1.164,0.375-4.165,0.338-4.165,0.338
						v4.879h1.203C253.758,276.351,253.811,274.82,254.142,274.773z"/>
					<path style="fill:#093D60;" d="M200.459,374.539c-1.993,3.737-11.434,5.62-11.434,5.62s-0.683,1.103,0.392,2.499
						c1.074,1.396,11.007,0.547,12.252,0.293c1.245-0.253,2.104-1.181,2.104-1.181s0.834,0.835,1.3,1.042
						c0.466,0.206,3.003-0.259,3.003-0.259c0.6-1.486,0.016-7.163-0.153-8.069L200.459,374.539z"/>
					<g>
						<path style="fill:#509AA0;" d="M285.914,292.811h-23.183c-3.5,0-6.528,2.436-7.277,5.855l-8.262,37.702h-18.31
							c-3.263,0-5.909,2.645-5.909,5.909c0,3.263,2.645,5.909,5.909,5.909h15.72l-0.007,0.033h32.501
							c3.466,0,6.465-2.413,7.207-5.799l8.889-40.564C294.21,297.209,290.672,292.811,285.914,292.811z"/>
						<path style="fill:#90D6CA;" d="M254.268,342.419l8.889-40.564c0.751-3.428-0.981-6.714-3.849-8.206
							c-1.916,0.993-3.368,2.794-3.855,5.016l-8.262,37.702h-18.31c-3.263,0-5.909,2.645-5.909,5.909
							c0,3.263,2.645,5.909,5.909,5.909h15.72l-0.007,0.033h2.467C250.527,348.218,253.526,345.806,254.268,342.419z"/>
						<g>
							<rect x="239.617" y="348.189" style="fill:#509AA0;" width="33.673" height="5.109"/>
							<rect x="239.617" y="348.189" style="fill:#368499;" width="33.673" height="1.592"/>
						</g>
						<rect x="253.144" y="353.211" style="fill:#90D6CA;" width="6.618" height="26.545"/>
						<rect x="256.807" y="353.211" style="fill:#509AA0;" width="2.956" height="26.545"/>
						<path style="fill:#509AA0;" d="M268.79,383.439c-0.001-2.034-0.888-3.683-1.982-3.683H246.65
							c-1.094,0-1.981,1.649-1.982,3.683H268.79z"/>
					</g>
					<path style="fill:#ED8564;" d="M207.986,305.309c0,0-6.844,1.6-6.889,4.07h6.768L207.986,305.309z"/>
					<path style="fill:#FFA683;" d="M311.791,305.309c0,0-6.844,1.6-6.889,4.07h6.767L311.791,305.309z"/>
					<path style="fill:#5FBBF9;" d="M334.278,323.835c0,0,12.772,13.353,33.557,5.573c0,0,4.288-5.939,3.367-21.481
						c-0.747-12.601,0.533-22.951-2.918-27.672c-1.13-1.547-2.98-2.401-4.896-2.401h-20.75h-15.675l-9.986-27.054l-5.225,1.277
						l9.242,35.464c0.442,1.696,1.939,2.904,3.69,2.978l19.115,0.805c0,0-3.677,6.386-2.438,11.495
						C342.6,307.927,341.051,319.616,334.278,323.835z"/>
					<g>
						<g>
							<path style="fill:#FFA683;" d="M357.637,269.065v8.708h-8.088v-4.455c-8.642-1.509-4.116-12.477-4.116-12.477l1.236-2.744
								c0,0,8.91,4.935,9.051,5.141C355.855,263.444,357.637,269.065,357.637,269.065z"/>
							<path style="fill:#093D60;" d="M348.276,261.309c0.714,0.516,1.32,0.383,1.32,0.383c0.604,2.97,2.492,3.677,2.492,3.677
								c0.812-1.928,2.651-0.896,2.651-0.896c1.337,1.234,0.309,4.319-1.131,4.662c0,0-0.828,2.935-1.365,7.291
								c-0.711,5.775,3.847,10.854,9.666,10.854l0,0c7.199,0,11.868-7.526,8.742-14.011c-0.731-1.516-1.554-3.04-2.462-4.553
								c-4.238-7.064-0.798-15.589-6.922-18C349.229,245.976,340.803,255.907,348.276,261.309z"/>
						</g>
						<path style="fill:#ED8564;" d="M350.952,274.722c0.72-0.103,2.4-1.714,2.4-1.714c-1.063,0.343-3.803,0.309-3.803,0.309v4.455
							h1.098C350.602,276.163,350.651,274.766,350.952,274.722z"/>
					</g>
					<g>
						<g>
							<polygon style="fill:#90D6CA;" points="174.936,383.652 200.528,313.288 202.929,313.288 177.337,383.652 							"/>
							<polygon style="fill:#90D6CA;" points="210.753,383.652 185.161,313.288 187.561,313.288 213.153,383.652 							"/>
						</g>
						<path style="fill:#90D6CA;" d="M205.385,313.288h-22.681v0.994c0,1.375,1.115,2.49,2.49,2.49h17.701
							c1.375,0,2.49-1.115,2.49-2.49V313.288z"/>
						<path style="fill:#69B7A8;" d="M205.382,314.313c0-0.011,0.003-0.021,0.003-0.032v-0.994h-22.681v0.994
							c0,0.011,0.003,0.021,0.003,0.032H205.382z"/>
					</g>
					<g>
						<g>
							<polygon style="fill:#90D6CA;" points="365.718,383.652 391.31,313.288 393.71,313.288 368.118,383.652 							"/>
							<polygon style="fill:#90D6CA;" points="401.534,383.652 375.942,313.288 378.343,313.288 403.935,383.652 							"/>
						</g>
						<path style="fill:#90D6CA;" d="M396.167,313.288h-22.681v0.994c0,1.375,1.115,2.49,2.49,2.49h17.701
							c1.375,0,2.49-1.115,2.49-2.49V313.288z"/>
					</g>
					<g>
						<g>
							<rect x="337.152" y="348.189" style="fill:#509AA0;" width="33.673" height="5.109"/>
							<rect x="337.152" y="348.189" style="fill:#368499;" width="33.673" height="1.592"/>
						</g>
						<rect x="350.679" y="353.211" style="fill:#90D6CA;" width="6.618" height="26.545"/>
						<rect x="354.342" y="353.211" style="fill:#509AA0;" width="2.956" height="26.545"/>
						<path style="fill:#509AA0;" d="M366.325,383.439c-0.001-2.034-0.888-3.683-1.982-3.683h-20.158
							c-1.094,0-1.981,1.649-1.982,3.683H366.325z"/>
						<path style="fill:#509AA0;" d="M382.455,292.811h-23.184c-3.5,0-6.528,2.436-7.277,5.855l-8.262,37.702h-18.31
							c-3.263,0-5.909,2.645-5.909,5.909c0,3.263,2.645,5.909,5.909,5.909h15.72l-0.007,0.033h32.501
							c3.466,0,6.465-2.413,7.207-5.799l8.889-40.564C390.751,297.209,387.212,292.811,382.455,292.811z"/>
						<path style="fill:#90D6CA;" d="M350.809,342.419l8.889-40.564c0.751-3.428-0.981-6.714-3.849-8.206
							c-1.916,0.993-3.368,2.794-3.855,5.016l-8.262,37.702h-18.31c-3.263,0-5.909,2.645-5.909,5.909
							c0,3.263,2.645,5.909,5.909,5.909h15.72l-0.007,0.033h2.467C347.068,348.218,350.067,345.806,350.809,342.419z"/>
					</g>
					<path style="fill:#FFA683;" d="M316.977,250.799c0,0,1.393-4.877,0.813-4.761c-0.581,0.116-1.626,1.51-1.626,1.51
						s-1.277-5.573-4.18-5.69c-2.903-0.116-1.393,7.431-0.232,10.218L316.977,250.799z"/>
					<path style="fill:#093D60;" d="M303.16,374.073v8.579h-1.796l-1.006-3.914c0,0-1.408,4.105-4.426,4.2
						c-3.018,0.096-11.141,0.716-11.241,0.143c-0.101-0.573,10.562-7.864,11.166-8.078
						C296.46,374.788,303.16,374.073,303.16,374.073z"/>
					<path style="fill:#093D60;" d="M335.168,374.073v8.579h-1.796l-1.006-3.914c0,0-1.408,4.105-4.426,4.2
						c-3.018,0.096-11.141,0.716-11.241,0.143c-0.101-0.573,10.562-7.864,11.166-8.078
						C328.468,374.788,335.168,374.073,335.168,374.073z"/>
					<path style="fill:#37A5E2;" d="M323.992,288.434c-3.373,0-11.889-35.012-12.229-36.315l9.231,35.421
						c0.442,1.696,1.939,2.904,3.69,2.978l19.115,0.805c0,0-3.677,6.386-2.438,11.495c1.238,5.109-0.31,16.798-7.083,21.017
						c0,0,1.381,1.437,3.959,3.092c7.655-5.118,7.878-17.994,5.81-23.267c-2.456-6.262,3.03-13.404,3.03-13.404
						S327.43,288.434,323.992,288.434z"/>
				</g>
			</g>
		</g>
	</g>
</g>
<g id="DESIGNED_BY_FREEPIK">
	<g>
		<g id="XMLID_319_">
			<g id="XMLID_338_">
				<path id="XMLID_346_" style="fill:#1D262D;" d="M260.104,465.465c-0.432,0.443-0.803,0.931-1.108,1.453l-0.465-0.241
					c-0.067-0.298-0.349-0.503-0.659-0.466c-0.331,0.039-0.568,0.339-0.529,0.67c0.039,0.331,0.339,0.568,0.67,0.529
					c0.066-0.008,0.127-0.026,0.184-0.052l0.451,0.234c-0.251,0.554-0.433,1.139-0.539,1.744l0.747,0.132
					c0.23-1.306,0.85-2.507,1.792-3.473L260.104,465.465z"/>
				<path id="XMLID_345_" style="fill:#1D262D;" d="M265.592,463.163c-0.171,0-0.341,0.006-0.51,0.017l-0.074-0.626
					c0.188-0.149,0.296-0.389,0.266-0.645c-0.046-0.393-0.402-0.674-0.795-0.628c-0.393,0.046-0.674,0.402-0.628,0.795
					c0.03,0.254,0.189,0.461,0.404,0.564l0.074,0.624c-0.714,0.116-1.403,0.332-2.06,0.646l0.327,0.684
					c0.934-0.447,1.942-0.673,2.995-0.673c0.496,0,0.993,0.053,1.475,0.158l0.161-0.741
					C266.692,463.222,266.142,463.163,265.592,463.163z"/>
				<path id="XMLID_344_" style="fill:#1D262D;" d="M272.194,465.711c0.331-0.04,0.566-0.341,0.526-0.672
					c-0.04-0.331-0.341-0.566-0.672-0.526c-0.309,0.038-0.535,0.304-0.53,0.609l-0.416,0.363c-0.418-0.43-0.889-0.813-1.408-1.139
					l-0.404,0.641c1.134,0.715,2.021,1.726,2.563,2.925l0.69-0.313c-0.251-0.554-0.567-1.072-0.942-1.545l0.402-0.351
					C272.065,465.716,272.129,465.719,272.194,465.711z"/>
				<path id="XMLID_343_" style="fill:#1D262D;" d="M265.044,473.372c-0.386,0.023-0.775,0.035-1.157,0.035
					c-0.88,0-1.733-0.061-2.478-0.179c-0.39-0.062-0.846-0.155-1.27-0.292c1.046,1.861,3.069,3.125,5.388,3.125
					c2.855,0,5.262-1.916,5.95-4.504c-0.682,0.449-1.505,0.825-2.459,1.123C267.839,473.047,266.463,473.286,265.044,473.372z"/>
				<path id="XMLID_339_" style="fill:#1D262D;" d="M265.592,464.68c-3.352,0-6.08,2.666-6.08,5.943
					c0,0.426,0.046,0.849,0.137,1.261c0.673,0.483,2.706,0.89,5.348,0.731c2.879-0.173,5.297-0.957,6.672-2.159
					c-0.006-0.195-0.021-0.39-0.045-0.582C271.244,466.913,268.65,464.68,265.592,464.68z M263.432,471.194
					c-1.02,0-1.85-0.83-1.85-1.85c0-1.02,0.83-1.85,1.85-1.85c1.02,0,1.85,0.83,1.85,1.85
					C265.282,470.365,264.452,471.194,263.432,471.194z M268.17,470.286c-0.75,0-1.36-0.61-1.36-1.36s0.61-1.361,1.36-1.361
					c0.75,0,1.361,0.61,1.361,1.361S268.92,470.286,268.17,470.286z"/>
			</g>
			<path id="XMLID_336_" style="fill:#1D262D;" d="M281.595,466.547c-0.295-0.116-0.805-0.309-1.382-0.237
				c-0.551,0.069-0.844,0.341-0.844,1.007v0.866h2.228v1.717h-2.228v5.455h-1.932v-5.455h-1.34v-1.717h1.34v-0.888
				c0-1.68,0.896-2.783,2.568-2.783c0.643,0,1.157,0.122,1.59,0.308L281.595,466.547z"/>
			<path id="XMLID_334_" style="fill:#1D262D;" d="M286.298,469.879c-0.177-0.03-0.358-0.046-0.526-0.046
				c-0.896,0-1.51,0.548-1.51,1.614v3.908h-1.932v-7.172h1.873v0.785c0.451-0.673,1.14-0.977,2.021-0.977
				c0.414,0,0.848,0.128,1.094,0.337L286.298,469.879z"/>
			<path id="XMLID_331_" style="fill:#1D262D;" d="M293.965,471.757c0,0.222-0.015,0.489-0.037,0.651h-5.085
				c0.207,1.036,0.933,1.488,1.843,1.488c0.622,0,1.295-0.252,1.813-0.688l1.133,1.243c-0.814,0.748-1.85,1.088-3.057,1.088
				c-2.198,0-3.723-1.495-3.723-3.753c0-2.258,1.48-3.797,3.627-3.797C292.544,467.99,293.958,469.522,293.965,471.757z
				 M288.851,471.091h3.175c-0.177-0.918-0.733-1.436-1.562-1.436C289.554,469.655,289.021,470.203,288.851,471.091z"/>
			<path id="XMLID_328_" style="fill:#1D262D;" d="M301.618,471.757c0,0.222-0.015,0.489-0.037,0.651h-5.085
				c0.207,1.036,0.933,1.488,1.843,1.488c0.622,0,1.295-0.252,1.814-0.688l1.132,1.243c-0.814,0.748-1.85,1.088-3.057,1.088
				c-2.198,0-3.723-1.495-3.723-3.753c0-2.258,1.48-3.797,3.627-3.797C300.197,467.99,301.611,469.522,301.618,471.757z
				 M296.504,471.091h3.175c-0.178-0.918-0.733-1.436-1.562-1.436C297.207,469.655,296.674,470.203,296.504,471.091z"/>
			<path id="XMLID_325_" style="fill:#1D262D;" d="M309.964,471.764c0,2.154-1.495,3.775-3.471,3.775
				c-0.962,0-1.643-0.378-2.109-0.933v3.708h-1.924v-10.133h1.887v0.792c0.466-0.585,1.155-0.984,2.139-0.984
				C308.469,467.99,309.964,469.61,309.964,471.764z M304.287,471.764c0,1.132,0.748,1.976,1.843,1.976
				c1.14,0,1.85-0.881,1.85-1.976c0-1.095-0.71-1.976-1.85-1.976C305.035,469.788,304.287,470.632,304.287,471.764z"/>
			<path id="XMLID_322_" style="fill:#1D262D;" d="M313.068,465.836c0,0.696-0.54,1.229-1.236,1.229
				c-0.696,0-1.229-0.533-1.229-1.229c0-0.696,0.533-1.243,1.229-1.243C312.527,464.592,313.068,465.14,313.068,465.836z
				 M312.809,475.354h-1.932v-7.172h1.932V475.354z"/>
			<path id="XMLID_320_" style="fill:#1D262D;" d="M316.032,470.736l2.701-2.554h2.368l-3.479,3.375l3.501,3.797h-2.376
				l-2.716-2.901v2.901H314.1v-10.658h1.932V470.736z"/>
		</g>
		<g>
			<path style="fill:#1D262D;" d="M184.412,475.289v-1.055c-0.527,0.718-1.391,1.23-2.387,1.23c-1.846,0-3.149-1.406-3.149-3.706
				c0-2.256,1.289-3.721,3.149-3.721c0.952,0,1.816,0.469,2.387,1.245v-3.765h1.099v9.77H184.412z M184.412,473.37v-3.208
				c-0.395-0.615-1.245-1.143-2.124-1.143c-1.421,0-2.27,1.172-2.27,2.739c0,1.567,0.85,2.724,2.27,2.724
				C183.168,474.483,184.017,473.986,184.412,473.37z"/>
			<path style="fill:#1D262D;" d="M186.932,471.744c0-2.051,1.465-3.706,3.486-3.706c2.139,0,3.398,1.67,3.398,3.794v0.279h-5.727
				c0.088,1.333,1.025,2.446,2.549,2.446c0.805,0,1.626-0.322,2.182-0.894l0.527,0.718c-0.703,0.703-1.655,1.084-2.812,1.084
				C188.44,475.465,186.932,473.956,186.932,471.744z M190.403,468.947c-1.509,0-2.256,1.274-2.314,2.358h4.643
				C192.718,470.25,192.015,468.947,190.403,468.947z"/>
			<path style="fill:#1D262D;" d="M194.607,474.351l0.571-0.791c0.469,0.542,1.362,1.011,2.329,1.011c1.084,0,1.67-0.513,1.67-1.216
				c0-1.714-4.38-0.659-4.38-3.281c0-1.098,0.952-2.036,2.636-2.036c1.201,0,2.051,0.454,2.622,1.026l-0.513,0.762
				c-0.424-0.513-1.201-0.894-2.109-0.894c-0.967,0-1.567,0.483-1.567,1.113c0,1.552,4.38,0.527,4.38,3.281
				c0,1.187-0.952,2.138-2.783,2.138C196.306,475.465,195.325,475.113,194.607,474.351z"/>
			<path style="fill:#1D262D;" d="M201.477,466.471c0-0.41,0.337-0.747,0.732-0.747c0.41,0,0.747,0.337,0.747,0.747
				c0,0.41-0.337,0.732-0.747,0.732C201.814,467.203,201.477,466.881,201.477,466.471z M201.667,475.289v-7.075h1.099v7.075H201.667
				z"/>
			<path style="fill:#1D262D;" d="M204.582,477.105l0.556-0.82c0.586,0.703,1.289,0.967,2.3,0.967c1.172,0,2.27-0.571,2.27-2.124
				v-1.011c-0.513,0.718-1.377,1.26-2.373,1.26c-1.845,0-3.149-1.377-3.149-3.662c0-2.27,1.289-3.677,3.149-3.677
				c0.952,0,1.802,0.469,2.373,1.245v-1.069h1.098v6.87c0,2.344-1.641,3.076-3.369,3.076
				C206.237,478.16,205.417,477.926,204.582,477.105z M209.709,473.253v-3.091c-0.381-0.615-1.23-1.143-2.109-1.143
				c-1.421,0-2.27,1.128-2.27,2.695c0,1.553,0.849,2.695,2.27,2.695C208.478,474.41,209.328,473.868,209.709,473.253z"/>
			<path style="fill:#1D262D;" d="M217.413,475.289v-4.629c0-1.245-0.63-1.641-1.582-1.641c-0.865,0-1.685,0.527-2.095,1.099v5.17
				h-1.099v-7.075h1.099v1.025c0.498-0.586,1.464-1.201,2.519-1.201c1.48,0,2.256,0.747,2.256,2.285v4.966H217.413z"/>
			<path style="fill:#1D262D;" d="M219.932,471.744c0-2.051,1.465-3.706,3.486-3.706c2.139,0,3.398,1.67,3.398,3.794v0.279h-5.727
				c0.088,1.333,1.025,2.446,2.549,2.446c0.806,0,1.626-0.322,2.183-0.894l0.527,0.718c-0.703,0.703-1.655,1.084-2.812,1.084
				C221.441,475.465,219.932,473.956,219.932,471.744z M223.404,468.947c-1.509,0-2.256,1.274-2.314,2.358h4.643
				C225.718,470.25,225.015,468.947,223.404,468.947z"/>
			<path style="fill:#1D262D;" d="M233.35,475.289v-1.055c-0.527,0.718-1.392,1.23-2.388,1.23c-1.846,0-3.149-1.406-3.149-3.706
				c0-2.256,1.289-3.721,3.149-3.721c0.952,0,1.817,0.469,2.388,1.245v-3.765h1.098v9.77H233.35z M233.35,473.37v-3.208
				c-0.396-0.615-1.245-1.143-2.124-1.143c-1.421,0-2.27,1.172-2.27,2.739c0,1.567,0.849,2.724,2.27,2.724
				C232.105,474.483,232.954,473.986,233.35,473.37z"/>
			<path style="fill:#1D262D;" d="M239.692,475.289v-9.77h1.098v3.765c0.572-0.776,1.421-1.245,2.388-1.245
				c1.845,0,3.149,1.465,3.149,3.721c0,2.299-1.304,3.706-3.149,3.706c-0.996,0-1.86-0.513-2.388-1.23v1.055H239.692z
				 M242.9,474.483c1.436,0,2.285-1.157,2.285-2.724c0-1.568-0.85-2.739-2.285-2.739c-0.864,0-1.728,0.527-2.109,1.143v3.208
				C241.171,473.986,242.036,474.483,242.9,474.483z"/>
			<path style="fill:#1D262D;" d="M247.528,477.061c0.161,0.073,0.425,0.117,0.601,0.117c0.483,0,0.805-0.161,1.055-0.747
				l0.469-1.069l-2.959-7.148h1.187l2.358,5.8l2.344-5.8h1.201l-3.545,8.51c-0.425,1.025-1.143,1.421-2.08,1.435
				c-0.234,0-0.601-0.044-0.805-0.103L247.528,477.061z"/>
		</g>
	</g>
</g>
</svg>
