<?xml version="1.0" encoding="utf-8"?>
<!-- Generator: Adobe Illustrator 27.5.0, SVG Export Plug-In . SVG Version: 6.00 Build 0)  -->
<svg version="1.1" xmlns="http://www.w3.org/2000/svg" xmlns:xlink="http://www.w3.org/1999/xlink" x="0px" y="0px"
	 viewBox="0 0 500 500" style="enable-background:new 0 0 500 500;" xml:space="preserve">
<g id="Floor">
	<path id="Floor_1_" style="fill:#F5F5F5;" d="M93.92,440.006c85.676,39.027,224.583,39.027,310.258,0
		c85.674-39.027,85.674-102.303,0-141.331c-85.674-39.027-224.581-39.027-310.258,0S8.244,400.979,93.92,440.006z"/>
</g>
<g id="Shadows">
	<path id="Shadow_13_" style="fill:#E0E0E0;" d="M433.452,379.757c-19.96,9.514-52.322,9.514-72.282,0
		c-19.961-9.512-19.961-24.937,0-34.451c19.96-9.512,52.322-9.512,72.282,0C453.412,354.82,453.412,370.245,433.452,379.757z"/>
	<path id="Shadow_14_" style="fill:#E0E0E0;" d="M133.92,392.465c-19.96,9.514-52.322,9.514-72.282,0
		c-19.961-9.512-19.961-24.937,0-34.451c19.96-9.512,52.321-9.512,72.282,0C153.88,367.528,153.88,382.953,133.92,392.465z"/>
</g>
<g id="Character_2">
	<g id="XMLID_1841_">
		<g id="XMLID_1503_">
			<g id="XMLID_1391_">
				
					<rect id="XMLID_2238_" x="67.413" y="354.047" transform="matrix(-1 -1.224647e-16 1.224647e-16 -1 144.193 724.13)" style="fill:#B16668;" width="9.367" height="16.035"/>
				<polygon id="XMLID_1659_" style="fill:#B16668;" points="105.725,357.94 115.086,358.262 115.555,341.292 105.725,340.97 				
					"/>
				<path id="XMLID_2235_" style="fill:#37474F;" d="M70.211,240.3c0,8.945,0.471,60.778,0.471,60.778
					c-0.218,2.574-2.696,7.15-2.888,16.421c-0.279,13.445-0.781,44.566-0.781,44.566s4.547,2.657,10.429,0.206
					c0,0,9.926-44.246,11.604-57.554c1.465-11.614,3.95-43.166,3.95-43.166l7.159,39.259c0,0-1.727,6.927-1.161,14.886
					c0.438,6.156,6.137,36.987,6.137,36.987s4.409,2.992,10.815,0.828c0,0,0.559-48.397,0.667-54.044
					c0.123-6.439-2.685-61.825-2.685-61.825L70.211,240.3z"/>
				<path id="XMLID_1527_" style="fill:#263238;" d="M76.78,365.459c0,0-0.001-1.338,0-1.338c0.502-0.011,0.813,0.488,1.005,1.694
					c0.137,0.862,0.264,1.514,0.548,2.65c0.434,1.735,0.825,2.796,1.636,4.794c1.324,3.263,2.436,4.478,5.468,8.293
					c0.719,0.905,2.343,2.342,2.909,3.35c0.566,1.008,0.766,3.812-0.196,4.453c-3.537,2.358-8.907,2.423-12.706,1.31
					c-2.923-0.857-5.031-3.191-5.516-6.198c-0.139-0.863-0.088-1.746-0.187-2.615c-0.226-1.982-1.221-3.793-2.346-5.441
					c-0.652-0.956-1.362-1.89-1.799-2.961c-0.787-1.925-0.156-4.091,0.347-6.009c0.434-1.656,0.905-3.477,1.47-3.322
					c0.002,0.202,0,1.021,0,1.021c0.68,0.753,2.561,1.501,4.683,1.583C73.467,366.776,76.791,366.504,76.78,365.459z"/>
				<path id="XMLID_1526_" style="fill:#263238;" d="M115.186,355.373c0.486,0.017,0.882,0.703,1.955,1.864
					c1.297,1.403,3.417,2.917,5.51,3.965c3.507,1.756,10.326,4.457,13.413,5.847c1.928,0.868,1.838,3.197-0.155,4.523
					c-1.993,1.325-6.804,2.28-12.582,0.988c-3.147-0.704-7.244-3.611-9.838-3.454c-2.593,0.157-7.446,0.12-9.36-1.2
					c-1.914-1.319-1.148-4.138-0.607-6.559c0.59-2.643,1.329-6.764,2.204-6.583v0.911c1.126,1.705,6.937,2.399,9.411,1.144
					L115.186,355.373z"/>
				<path id="XMLID_1512_" style="fill:#263238;" d="M92.996,261.551c0,0,7.487-2.109,13.043-7.479c0,0-2.517,4.712-10.001,9.098
					l3.621,34.921L92.996,261.551z"/>
			</g>
			<g id="XMLID_2558_">
				<g id="XMLID_1668_">
					<path id="XMLID_1670_" style="fill:#B16668;" d="M107.889,218.904c-6.123-20.384-4.905-37.642-6.056-42.928l15.685,21.914
						c0,0,1.143,12.636,3.207,21.503c1.813,7.79,4.283,17.502,7.246,23.54c0.525,1.07,1.45,1.886,2.553,2.337
						c2.96,1.208,4.333,2.736,6.708,4.493c1.86,1.376,3.272,1.554,3.155,2.114c-0.149,0.72-1.084,2.005-3.116,1.751
						c-1.022-0.128-2.407-0.671-4.144-1.399c0,0,1.686,3.087,5.035,5.996c4.538,3.941,5.191,6.732-2.356,8.108
						c-4.729,0.862-9.015-1.405-14.387-11.225c-1.548-2.829-3.977-7.297-5.359-11.144
						C112.462,233.949,109.741,225.068,107.889,218.904z"/>
				</g>
				<path id="XMLID_863_" style="fill:#27DEBF;" d="M100.564,170.906c4.87,0.862,9.685,2.046,12.676,6.681
					c2.992,4.635,7.308,26.772,7.308,26.772s-6.277,4.405-13.48,4.219L100.564,170.906z"/>
				<path id="XMLID_1_" style="opacity:0.1;" d="M100.564,170.906c4.87,0.862,9.685,2.046,12.676,6.681
					c2.992,4.635,7.308,26.772,7.308,26.772s-6.277,4.405-13.48,4.219L100.564,170.906z"/>
				<path id="XMLID_1671_" style="fill:#9A4A4D;" d="M67.013,179.124c-3.276,2.328-20.521,41.286-21.179,44.016
					c-0.889,3.688-0.48,7.824,1.323,9.157c1.86,1.375,5.803-0.576,7.895-2.62c4.042-3.949,18.046-33.133,18.046-33.133
					L67.013,179.124z"/>
				<path id="XMLID_2559_" style="fill:#27DEBF;" d="M84.147,170.954c-7.949,1.914-18.037,5.124-21.568,12.45
					c-3.53,7.327-8.981,19.202-8.981,19.202c3.584,3.523,7.952,6.139,13.162,7.779l4.04-7.032L70.211,240.3
					c6.451,4.699,30.143,7.257,43.719-2.658c0,0-1.661-44.366-1.661-51.271c0-6.906-3.837-15.202-14.431-15.818L84.147,170.954z"/>
				<path id="XMLID_2557_" style="opacity:0.1;" d="M70.801,203.353c0,0,3.985-6.917,4.851-8.581l-4.986,17.017L70.801,203.353z"/>
			</g>
			<g id="XMLID_1530_">
				<g id="XMLID_1645_">
					<circle id="XMLID_2252_" style="fill:#263238;" cx="99.306" cy="140.168" r="12.873"/>
					<path id="XMLID_1649_" style="fill:#263238;" d="M77.053,149.321c0,0,2.086,9.8,2.923,11.411
						c0.837,1.61,2.565,2.068,2.565,2.068l-0.146-6.894L77.053,149.321z"/>
					<path id="XMLID_2120_" style="fill:#263238;" d="M79.671,135.281c0,0-2.247-0.385-3.998,1.406
						c-1.717,1.756-0.758,7.251,1.38,12.634l3.929,0.451L79.671,135.281z"/>
					<path id="XMLID_1648_" style="fill:#B16668;" d="M82.161,149.775c-0.788,0.471-1.912-1.043-2.884-2.06
						c-0.972-1.016-4.144-2.406-5.726,0.928c-1.612,3.398,1.397,7.887,3.894,8.671c4.303,1.351,4.95-1.41,4.95-1.41l0.318,15.999
						l0,0c5.351,6.86,20.2,6.281,14.013-0.885l-0.012-4.724c0,0,3.899,0.592,5.801,0.298c3.165-0.489,5.156-2.986,6.116-6.412
						c1.542-5.503,2.127-9.946,0.819-20.768c-1.434-11.861-15.23-11.985-22.68-7.296C79.32,136.805,82.161,149.775,82.161,149.775z"
						/>
					<path id="XMLID_1647_" style="fill:#263238;" d="M82.161,151.101c-0.396,0.008-1.903-2.493-2.884-3.385
						c-1.359-1.237,0.394-12.435,0.394-12.435s-1.681-3.165,0.936-6.046c1.862-2.049,4.459-4.551,12.907-3.552
						c6.022,0.712,12.576,2.59,17.872-0.011c0.793,3.295,0.152,6.97-3.139,9.574c0,0-1.917,1.236-6.958,1.849
						c-5.041,0.614-12.894-0.118-13.967-0.265c-1.462-0.2-1.774,1.217-2.562,5.088C84.067,145.316,83.493,151.075,82.161,151.101z"
						/>
					<path id="XMLID_2115_" style="fill:#263238;" d="M79.679,136.152l-4.764-2.557c0.676-1.365,2.291-1.899,3.606-1.193
						C79.837,133.108,80.355,134.787,79.679,136.152z"/>
					<path id="XMLID_1646_" style="fill:#9A4A4D;" d="M96.714,166.294c0,0-7.065-1.423-9.535-2.736
						c-1.653-0.879-3.015-2.402-3.414-3.378c0,0,0.463,2.096,1.94,3.984c1.806,2.309,11.009,4.01,11.009,4.01L96.714,166.294z"/>
				</g>
				<g id="XMLID_1531_">
					<path id="XMLID_1644_" style="fill:#263238;" d="M95.016,148.009c0,0.813-0.634,1.469-1.416,1.467
						c-0.782-0.002-1.416-0.662-1.416-1.475c0-0.812,0.634-1.469,1.416-1.467C94.382,146.536,95.016,147.197,95.016,148.009z"/>
					<path id="XMLID_1643_" style="fill:#263238;" d="M93.514,142.664l-3.029,1.672c-0.447-0.87-0.131-1.95,0.706-2.411
						C92.027,141.462,93.067,141.794,93.514,142.664z"/>
					<path id="XMLID_2110_" style="fill:#9A4A4D;" d="M96.074,157.789l3.232,1.213c-0.32,0.926-1.303,1.406-2.195,1.071
						C96.218,159.738,95.754,158.715,96.074,157.789z"/>
					<path id="XMLID_2109_" style="fill:#263238;" d="M107.641,143.842l-2.762-2.127c0.563-0.791,1.638-0.956,2.401-0.368
						C108.042,141.934,108.204,143.051,107.641,143.842z"/>
					<path id="XMLID_1642_" style="fill:#263238;" d="M106.79,147.606c0,0.812-0.634,1.469-1.416,1.467
						c-0.782-0.002-1.416-0.662-1.416-1.475c0-0.812,0.634-1.469,1.416-1.467C106.157,146.133,106.79,146.794,106.79,147.606z"/>
					<polygon id="XMLID_1641_" style="fill:#9A4A4D;" points="99.577,146.263 100.042,154.777 104.488,153.262 					"/>
				</g>
			</g>
		</g>
		<g id="XMLID_1804_">
			<g id="XMLID_1674_">
				<path style="fill:#37474F;" d="M61.889,246.869c-0.276,0-0.5-0.224-0.5-0.5V89.085c0-0.276,0.224-0.5,0.5-0.5
					c0.276,0,0.5,0.224,0.5,0.5v157.284C62.389,246.645,62.166,246.869,61.889,246.869z"/>
			</g>
			<g id="XMLID_1801_">
				<g id="XMLID_1791_">
					<path id="XMLID_1803_" style="fill:#27DEBF;" d="M65.689,102.78L65.689,102.78c0-1.606-3.329-6.022-3.963-6.022
						c-0.634,0-3.638,4.31-3.638,6.022l0,0c0,0.564,0.369,1.129,1.108,1.559c1.477,0.861,3.883,0.861,5.375,0
						C65.316,103.908,65.689,103.344,65.689,102.78L65.689,102.78L65.689,102.78z"/>
					<path id="XMLID_1790_" style="opacity:0.1;" d="M65.689,102.78L65.689,102.78c0-1.606-3.329-6.022-3.963-6.022
						c-0.634,0-3.638,4.31-3.638,6.022l0,0c0,0.564,0.369,1.129,1.108,1.559c1.477,0.861,3.883,0.861,5.375,0
						C65.316,103.908,65.689,103.344,65.689,102.78L65.689,102.78L65.689,102.78z"/>
				</g>
				<path id="XMLID_1673_" style="fill:#27DEBF;" d="M84.006,67.876c0,12.305-9.651,27.84-22.279,30.783
					c-12.699-3.551-22.279-18.478-22.279-30.783c0-12.304,7.926-23.795,22.279-23.795C76.079,44.082,84.006,55.572,84.006,67.876z"
					/>
				<path id="XMLID_2083_" style="opacity:0.05;" d="M40.269,61.13c-0.544,2.174-0.822,4.446-0.822,6.746
					c0,12.305,9.58,27.231,22.279,30.783c10.498-2.446,18.932-13.594,21.481-24.355l0,0c0,0-3.315,11.807-17.927,12.751
					C50.668,87.999,38.881,71.313,40.269,61.13z"/>
			</g>
		</g>
		<path id="XMLID_1672_" style="fill:#B16668;" d="M47.652,232.518c-2.667-0.756-5.39-8.715-5.19-13.821
			c0.2-5.106,7.054-27.153,8.027-31.4c1.071-4.68,0.996-8.237,1.949-10.67c1.403-3.583,5.963-5.553,5.963-5.553
			s5.974-2.872,8.16-3.301c2.186-0.429,2.999,0.962,2.763,2.129c-0.236,1.167-1.043,3.958-1.203,5.555s-0.575,3.872-1.709,5.683
			c-1.134,1.81-5.741,6.138-5.92,8.547c-0.178,2.41-1.511,15.497-2.275,25.015c-0.625,7.777-1.408,11.013-3.097,13.053
			C53.43,229.795,49.722,233.105,47.652,232.518z"/>
	</g>
</g>
<g id="Character_1">
	<g id="XMLID_1840_">
		<g id="XMLID_2342_">
			<g id="XMLID_1392_">
				<rect id="XMLID_1793_" x="413.572" y="345.042" style="fill:#FFA8A7;" width="9.496" height="16.255"/>
				<polygon id="XMLID_1792_" style="fill:#FFA8A7;" points="390.145,344.175 380.655,344.501 380.18,327.298 390.145,326.972 				
					"/>
				<path id="XMLID_1396_" style="fill:#27DEBF;" d="M420.023,224.048c0,9.068,1.414,63.545,1.414,63.545
					c0.221,2.609,2.733,7.248,2.928,16.646c0.283,13.629-0.892,48.931-0.892,48.931s-4.609,2.694-10.572,0.209
					c0,0-8.379-48.607-10.081-62.098c-1.485-11.773-4.004-43.758-4.004-43.758l-5.147,38.436c0,0,1.75,7.022,1.177,15.091
					c-0.444,6.24-4.1,37.797-4.1,37.797s-4.47,3.033-10.964,0.839c0,0-4.799-48.001-4.908-53.726
					c-0.125-6.527,3.158-73.157,3.158-73.157L420.023,224.048z"/>
				<g id="XMLID_1389_">
					<g id="XMLID_1837_">
						<path id="XMLID_1839_" style="fill:#FFA8A7;" d="M382.78,205.316c6.123-20.384,4.905-37.642,6.056-42.928l-15.685,21.914
							c0,0-1.143,12.636-3.207,21.503c-1.813,7.79-4.283,17.502-7.246,23.54c-0.525,1.07-1.45,1.886-2.553,2.337
							c-2.96,1.208-4.333,2.736-6.708,4.493c-1.86,1.376-3.272,1.554-3.155,2.114c0.149,0.72,1.084,2.006,3.116,1.751
							c1.022-0.128,2.407-0.671,4.144-1.399c0,0-1.686,3.087-5.035,5.996c-4.538,3.942-5.191,6.732,2.356,8.108
							c4.729,0.862,9.015-1.405,14.386-11.225c1.548-2.829,3.977-7.297,5.359-11.144C378.207,220.361,380.928,211.48,382.78,205.316
							z"/>
					</g>
					<path id="XMLID_1836_" style="fill:#E0E0E0;" d="M390.105,157.318c-4.87,0.862-9.685,2.046-12.676,6.681
						c-2.992,4.635-7.308,26.772-7.308,26.772s6.277,4.405,13.48,4.219L390.105,157.318z"/>
					<path id="XMLID_1835_" style="fill:#F28F8F;" d="M423.656,165.536c3.276,2.328,20.521,41.286,21.179,44.016
						c0.889,3.688,0.48,7.824-1.323,9.157c-1.86,1.375-5.803-0.576-7.895-2.62c-4.042-3.949-18.046-33.133-18.046-33.133
						L423.656,165.536z"/>
					<path id="XMLID_1399_" style="fill:#F0F0F0;" d="M406.677,157.312c7.949,1.914,18.037,5.124,21.568,12.45
						c3.531,7.327,8.981,19.202,8.981,19.202c-3.584,3.523-7.952,6.139-13.162,7.78l-4.04-7.032l0.591,36.947
						c-6.451,4.699-30.143,7.257-43.719-2.658c0,0,1.661-44.366,1.661-51.271c0-6.906,3.837-15.202,14.431-15.818L406.677,157.312z"
						/>
					<path id="XMLID_1397_" style="fill:#E0E0E0;" d="M420.023,189.711c0,0-3.985-6.917-4.851-8.581l4.986,17.017L420.023,189.711z"
						/>
				</g>
				<path id="XMLID_1395_" style="fill:#263238;" d="M413.572,356.61v-1.358c-0.908,0.396-3.02,8.45-6.787,11.886
					c-2.995,2.732-7.081,5.887-8.12,8.933c-1.081,3.168,5.69,4.916,8.488,4.421c3.251-0.576,8.887-2.865,10.301-4.987
					c1.415-2.122,2.077-5.253,3.226-6.809c1.15-1.555,3.799-3.292,4.421-5.092c0.342-0.989-0.064-3.155-0.544-4.985
					c-0.44-1.679-0.917-3.525-1.491-3.367c-0.002,0.205,0,1.035,0,1.035c-0.689,0.764-2.596,1.522-4.747,1.605
					C416.931,357.945,413.56,357.67,413.572,356.61z"/>
				<path id="XMLID_1394_" style="fill:#263238;" d="M380.554,341.573c-0.493,0.017-0.894,0.713-1.982,1.89
					c-1.314,1.423-3.464,2.957-5.586,4.019c-3.556,1.78-10.468,4.518-13.597,5.927c-1.955,0.88-1.863,3.241,0.158,4.585
					c2.02,1.343,6.898,2.311,12.755,1.002c3.191-0.714,7.344-3.66,9.973-3.501c2.629,0.159,7.548,0.121,9.488-1.216
					c1.94-1.337,1.164-4.194,0.616-6.649c-0.598-2.679-1.347-6.857-2.234-6.674v0.923c-1.142,1.729-7.033,2.432-9.54,1.16
					L380.554,341.573z"/>
				<path id="XMLID_1393_" style="opacity:0.1;" d="M398.816,247.523c0,0-7.59-2.138-13.223-7.581c0,0,2.551,4.777,10.139,9.223
					l-1.623,33.505L398.816,247.523z"/>
			</g>
			<g id="XMLID_2522_">
				<g id="XMLID_2538_">
					<g id="XMLID_2555_">
						<path id="XMLID_2556_" style="fill:#263238;" d="M409.661,121.969c0,0,2.197-0.376,3.909,1.375
							c1.679,1.717,1.33,4.895-0.003,12.198l-5.189,0.596L409.661,121.969z"/>
					</g>
					<g id="XMLID_2553_">
						<path id="XMLID_2554_" style="fill:#263238;" d="M379.406,119.856c0,0-2.096,0.002-3.247-0.659
							c-1.593-0.915-2.008,0.895-1.135,2.468c0.873,1.573,2.503,3.622,6.021,4.01c0.047-0.226,1.489-4.053,1.489-4.053
							L379.406,119.856z"/>
					</g>
					<g id="XMLID_2549_">
						<path id="XMLID_2552_" style="fill:#FFA8A7;" d="M407.227,136.14c0.771,0.46,1.87-1.02,2.82-2.014
							c0.95-0.994,4.051-2.352,5.599,0.908c1.576,3.322-2.003,7.74-4.104,9.2c-2.497,1.735-4.314,0.374-4.314,0.374l-0.55,12.704
							c0,0-2.755,6.741-10.216,7.753c-7.461,1.012-5.925-5.139-3.474-8.154l0.012-4.62c0,0-3.85,0.76-5.672,0.291
							c-1.929-0.496-4.497-2.365-5.525-5.688c-1.29-4.173-2.826-11.341-1.256-20.887c1.896-11.527,14.891-11.718,22.176-7.133
							C410.004,123.459,407.227,136.14,407.227,136.14z"/>
					</g>
					<g id="XMLID_2546_">
						<path id="XMLID_2548_" style="fill:#263238;" d="M407.227,137.436c0.388,0.007,1.861-2.438,2.82-3.31
							c1.329-1.209-0.385-12.158-0.385-12.158s1.344-4.153-1.282-6.907c-2.626-2.754-7.715-2.289-11.436-2.423
							c-3.872-0.139-8.017-0.373-13.303-2.669c-5.285-2.296-5.68-2.567-6.336-0.246c-0.656,2.321-0.902,7.636,2.251,11.198
							l2.624,0.964c0,0,1.417,1.257,6.346,1.857c4.929,0.6,12.607-0.115,13.656-0.259c1.429-0.196,1.734,1.19,2.505,4.974
							C405.363,131.78,405.924,137.411,407.227,137.436z"/>
					</g>
					<g id="XMLID_2543_">
						<path id="XMLID_2544_" style="fill:#263238;" d="M409.654,122.82l4.658-2.5c-0.661-1.335-2.24-1.857-3.526-1.166
							C409.499,119.844,408.992,121.485,409.654,122.82z"/>
					</g>
					<g id="XMLID_2539_">
						<path id="XMLID_2541_" style="fill:#F28F8F;" d="M392.998,152.291c0,0,6.908-1.391,9.323-2.675
							c1.616-0.859,2.947-2.348,3.338-3.303c0,0-0.452,2.049-1.897,3.896c-1.766,2.258-10.764,3.921-10.764,3.921L392.998,152.291z"
							/>
					</g>
				</g>
				<g id="XMLID_2525_">
					<g id="XMLID_2536_">
						<path id="XMLID_2537_" style="fill:#263238;" d="M394.652,134.185c0,0.794,0.62,1.436,1.384,1.434
							c0.765-0.002,1.384-0.648,1.384-1.442c0-0.794-0.62-1.437-1.384-1.435C395.272,132.745,394.652,133.39,394.652,134.185z"/>
					</g>
					<g id="XMLID_2534_">
						<path id="XMLID_2535_" style="fill:#263238;" d="M396.371,128.454l2.961,1.634c0.436-0.851,0.128-1.906-0.69-2.358
							C397.825,127.279,396.808,127.603,396.371,128.454z"/>
					</g>
					<g id="XMLID_2532_">
						<path id="XMLID_2533_" style="fill:#F28F8F;" d="M394.762,143.799l-3.16,1.186c0.313,0.906,1.274,1.375,2.146,1.047
							C394.621,145.705,395.075,144.705,394.762,143.799z"/>
					</g>
					<g id="XMLID_2530_">
						<path id="XMLID_2531_" style="fill:#263238;" d="M381.672,130.428l2.7-2.08c-0.551-0.773-1.602-0.934-2.347-0.36
							C381.279,128.562,381.121,129.655,381.672,130.428z"/>
					</g>
					<g id="XMLID_2528_">
						<path id="XMLID_2529_" style="fill:#263238;" d="M383.217,133.79c0,0.794,0.62,1.436,1.384,1.434
							c0.764-0.002,1.384-0.648,1.384-1.442c0-0.794-0.62-1.436-1.384-1.434C383.836,132.35,383.217,132.996,383.217,133.79z"/>
					</g>
					<g id="XMLID_2526_">
						<polygon id="XMLID_2527_" style="fill:#F28F8F;" points="390.786,132.706 390.332,141.031 385.985,139.549 						"/>
					</g>
				</g>
			</g>
		</g>
		<g id="XMLID_1828_">
			<g id="XMLID_1834_">
				<path style="fill:#37474F;" d="M428.78,233.281c-0.276,0-0.5-0.224-0.5-0.5V75.497c0-0.276,0.224-0.5,0.5-0.5
					c0.276,0,0.5,0.224,0.5,0.5v157.285C429.28,233.058,429.057,233.281,428.78,233.281z"/>
			</g>
			<g id="XMLID_1829_">
				<g id="XMLID_1831_">
					<path id="XMLID_1833_" style="fill:#27DEBF;" d="M424.98,89.192L424.98,89.192c0-1.606,3.329-6.022,3.963-6.022
						c0.634,0,3.638,4.31,3.638,6.022l0,0c0,0.564-0.369,1.128-1.108,1.559c-1.477,0.861-3.883,0.861-5.375,0
						C425.353,90.32,424.98,89.756,424.98,89.192L424.98,89.192L424.98,89.192z"/>
					<path id="XMLID_1832_" style="opacity:0.1;" d="M424.98,89.192L424.98,89.192c0-1.606,3.329-6.022,3.963-6.022
						c0.634,0,3.638,4.31,3.638,6.022l0,0c0,0.564-0.369,1.128-1.108,1.559c-1.477,0.861-3.883,0.861-5.375,0
						C425.353,90.32,424.98,89.756,424.98,89.192L424.98,89.192L424.98,89.192z"/>
				</g>
				<path id="XMLID_1830_" style="fill:#27DEBF;" d="M406.663,54.288c0,12.305,9.651,27.84,22.279,30.783
					c12.699-3.551,22.279-18.478,22.279-30.783c0-12.305-7.926-23.795-22.279-23.795C414.59,30.494,406.663,41.984,406.663,54.288z"
					/>
				<path id="XMLID_2090_" style="opacity:0.05;" d="M450.26,60.716c0,0-3.315,11.807-17.927,12.751
					c-14.08,0.91-25.532-14.548-25.106-24.786c-0.373,1.823-0.564,3.705-0.564,5.607c0,12.305,9.651,27.84,22.279,30.783
					c10.525-2.943,18.901-13.699,21.463-24.301L450.26,60.716z"/>
			</g>
		</g>
		<path id="XMLID_1805_" style="fill:#FFA8A7;" d="M443.017,218.93c2.667-0.756,5.39-8.715,5.19-13.822
			c-0.2-5.106-7.054-27.153-8.027-31.4c-1.071-4.68-0.996-8.237-1.949-10.67c-1.403-3.583-5.963-5.553-5.963-5.553
			s-5.974-2.872-8.16-3.301c-2.186-0.429-2.999,0.962-2.763,2.129c0.236,1.167,1.043,3.958,1.203,5.555s0.575,3.872,1.709,5.683
			c1.134,1.811,5.741,6.138,5.92,8.548c0.178,2.41,1.511,15.497,2.275,25.015c0.625,7.777,1.408,11.013,3.097,13.053
			C437.24,216.208,440.948,219.517,443.017,218.93z"/>
	</g>
</g>
<g id="Characters_with_Banner">
	<g id="XMLID_2027_">
		<path id="Shadow_12_" style="fill:#E0E0E0;" d="M220.908,357.834c-19.96,9.514-52.322,9.514-72.282,0
			c-19.961-9.512-19.961-24.937,0-34.451c19.96-9.512,52.322-9.512,72.282,0C240.868,332.898,240.868,348.322,220.908,357.834z"/>
		<path id="Shadow_11_" style="fill:#E0E0E0;" d="M329.508,365.246c-19.96,9.514-52.322,9.514-72.282,0
			c-19.961-9.512-19.961-24.937,0-34.451c19.96-9.512,52.322-9.512,72.282,0C349.469,340.309,349.469,355.734,329.508,365.246z"/>
		<g id="XMLID_2498_">
			<path id="XMLID_1802_" style="fill:#FFA8A7;" d="M197.63,139.701c2.646-0.383,4.888,0,9.518,6.323
				c4.141,5.654,12.393,15.155,12.393,15.155s7.441-19.552,7.24-22.192c-0.201-2.64-1.867-4.243-2.953-9.09
				c-1.086-4.847-1.384-5.761-2.2-7.169c-0.816-1.408,1.989-1.751,3.132,0c1.144,1.751,1.272,4.228,2.058,3.779
				s1.333-5.752,0.664-9.576c-0.669-3.824,1.069-4.679,1.859-3.462c0.79,1.217,0.948,2.25,0.948,2.25s2.53-0.667,4.503,1.519
				c1.973,2.186,3.656,5.532,3.655,11.205c-0.001,5.673-2.637,8.7-3.027,11.258c-0.39,2.557-4.989,26.289-8.277,34.306
				c-2.066,5.038-4.909,6.526-8.392,3.594c-4.689-3.948-17.563-19.77-17.563-19.77L197.63,139.701z"/>
			<path id="XMLID_830_" style="fill:#27DEBF;" d="M197.63,139.701c2.394-0.708,4.963-0.15,7.42,2.754
				c2.457,2.904,11.28,14.118,11.28,14.118s-0.261,5.735-7.669,11.053l-8.45-9.098L197.63,139.701z"/>
			<g id="XMLID_2926_">
				<g id="XMLID_1500_">
					<path id="XMLID_1502_" style="fill:#263238;" d="M210.155,324.862l-0.08-1.335c0.62,1.535,3.467,8.131,7.374,11.288
						c3.106,2.51,7.309,5.372,8.511,8.305c1.249,3.051-5.342,4.496-8.122,4.174c-3.231-0.375-7.476-1.941-9.893-4.572
						c-1.7-1.85-2.846-4.095-4.067-5.556c-1.222-1.462-3.93-3.013-4.647-4.746c-0.394-0.952-0.123-3.106,0.241-4.933
						c0.334-1.677,0.901-3.672,1.474-3.551c0.014,0.201-0.145,1.17-0.145,1.17c0.723,0.711,2.643,1.344,4.762,1.298
						C206.931,326.373,210.229,325.904,210.155,324.862z"/>
				</g>
				<g id="XMLID_1497_">
					<path id="XMLID_1499_" style="fill:#FFA8A7;" d="M220.256,337.018c-0.962-0.761-1.929-1.502-2.808-2.213
						c-2.73-2.206-4.942-6.092-6.239-8.756c-0.007-0.015-0.015-0.03-0.022-0.046c-1.044-2.165-1.305-4.183-1.253-6.892l0.119-3.151
						l-9.98,0.201l0.727,8.933v0l0,0.001l0.014,0.231l0.049,0.021c0.565,1.913,5.159,6.818,7.795,10.037
						c1.767,2.159,5.039,4.843,8.774,5.115C220.969,340.759,222.697,339.544,220.256,337.018z"/>
				</g>
				<path id="XMLID_704_" style="fill:#263238;" d="M154.317,325.96c-0.478-0.28-1.268,1.349-2.101,2.591
					c-0.832,1.241-1.339,3.511-1.213,5.087c0.126,1.576,0.251,2.646-0.313,5.965c-0.564,3.319-1.533,7.13,1.812,10.187
					c2.865,2.618,9.262,3.841,11.304,2.025c1.138-1.013,1.282-2.094,1.251-2.818c-0.136-0.975-1.153-3.087-1.682-4.175
					c-1.873-3.855-2.114-4.641-2.114-4.641L154.317,325.96z"/>
				<path id="XMLID_10_" style="fill:#FFA8A7;" d="M163.34,320.376c-0.444-0.368-1.393,11.912-1.662,14.834
					c-0.281,3.047,0.244,4.453,0.72,7.565c0.183,0.69,0.238,1.629-0.153,2.226c-0.439,0.671-1.337,0.99-2.139,0.996
					c-2.112,0.018-3.801-0.774-5.58-2.782c-0.876-0.989-0.936-3.657-0.889-4.619c0.081-1.669,0.242-3.168,0.088-4.832
					c-0.158-1.716-0.655-3.719-0.437-4.967c0.217-1.243,0.529-1.689,1.029-2.837c0.808-1.852,1.349-6.909,1.349-6.909
					S163.336,320.375,163.34,320.376z"/>
				<path id="XMLID_2657_" style="fill:#37474F;" d="M167.533,190.194c-5.194,6.665-6.13,13.55-4.996,33.04
					c1.134,19.489-0.509,35.332-0.795,36.425c-0.286,1.093-3.578,11.827-5.128,19.059c-1.815,8.467-2.064,43.342-2.064,43.342
					s3.693,2.025,9.389,0.64c0,0,13.765-54.494,15.222-58.882c1.457-4.388,12.508-49.666,12.508-49.666l-1.405-26.068
					L167.533,190.194z"/>
				<path id="XMLID_2654_" style="fill:#37474F;" d="M207.217,212.615c-0.791-8.997-2.717-24.59-2.717-24.59l-23.01-1.351
					c-3.729,5.807-2.107,15.471-1.093,24.198l13.158,51.523c-0.266,2.465-2.539,7.698,0,20.96
					c2.835,14.812,6.305,34.409,6.305,34.409s5.398,2.198,10.36,0.108c0,0,1.904-46.919,0.686-59.734
					C209.589,244.272,207.758,218.772,207.217,212.615z"/>
				<path id="XMLID_2499_" style="fill:#263238;" d="M187.635,234.467l3.756-18.901c0,0,5.606-1.947,9.388-4.788
					c0,0-3.094,3.994-6.572,6.057L187.635,234.467z"/>
			</g>
			<path id="XMLID_2668_" style="fill:#FFA8A7;" d="M168.923,144.416c-2.583,1.498-6.848,2.857-8.633,7.878
				c-2.427,7.027-8.879,25.18-11.357,31.706h11.922l8.242-16.901C175.482,161.618,174.624,146.388,168.923,144.416z"/>
			<g id="XMLID_2651_">
				<path id="XMLID_2652_" style="fill:#F5F5F5;" d="M203.042,173.406c0.567,5.252,2.685,24.673,2.685,24.673
					c-17.345,9.256-38.858,3.123-42.151-0.692c2.983-9.816,6.192-15.404,8.646-18.017l-3.124-12.271c0,0,7.27-8.646-0.174-22.683
					l9.669-3.179l13.233-1.143l5.804-0.393c2.07,1.936,5.331,8.889,7.446,14.302C206.438,157.492,207.913,163.067,203.042,173.406z"
					/>
			</g>
			<g id="XMLID_2925_">
				<path id="XMLID_1479_" style="fill:#27DEBF;" d="M168.923,144.416c-5.7,1.124-8.263,3.924-10.542,10.147
					c-2.464,6.73-5.41,14.012-5.41,14.012s4.866,7.751,14.618,6.047l3.695-10.29C171.284,164.331,176.225,155.243,168.923,144.416z"
					/>
			</g>
			<path id="XMLID_1400_" style="fill:#E6E6E6;" d="M170.67,173.276c0.153,0.603,4.213,5.969,6.204,7.241
				c1.992,1.272-3.529,3.016-4.308,6.157c-1.574,6.347,8.244,14.456,20.447,15.617c-13.791,2.264-26.924-1.991-29.438-4.904
				c2.983-9.816,6.191-15.404,8.645-18.017L170.67,173.276z"/>
			<g id="XMLID_829_">
				<path id="XMLID_2656_" style="fill:#263238;" d="M207.148,138.47h-18.532c-12.525,0-22.678-10.153-22.678-22.678l0,0
					c0-11.38,9.225-20.605,20.605-20.605l0,0c11.38,0,20.605,9.225,20.605,20.605V138.47z"/>
				<g id="XMLID_2649_">
					<path id="XMLID_2650_" style="fill:#FFA8A7;" d="M199.789,104.161c2.176,1.286,4.866,6.76,4.601,18.236
						c-0.225,9.726-3.377,12.129-4.96,12.821c-1.583,0.693-4.636,0.271-7.604-0.223v5.837c0,0-0.279,2.106-1.846,3.087
						c-2.418,1.514-5.283,0.937-6.889,0.359c-3.547-1.277-4.255-3.022-4.255-3.022l0.067-13.421c0,0-1.747,1.697-4.709-0.893
						c-2.445-2.138-3.269-5.743-1.363-7.677c1.905-1.934,5.427-1.408,6.778,1.35c0,0,1.741,0.142,3.482-3.09
						c0,0-0.058-8.784,1.897-9.929C191.195,103.963,195.616,104.161,199.789,104.161z"/>
				</g>
				<g id="XMLID_2647_">
					<path id="XMLID_2648_" style="fill:#263238;" d="M191.824,119.337c0.035,0.701-0.483,1.295-1.158,1.327
						c-0.675,0.032-1.25-0.51-1.285-1.211c-0.035-0.701,0.483-1.295,1.158-1.327C191.214,118.094,191.789,118.636,191.824,119.337z"
						/>
				</g>
				<g id="XMLID_2638_" style="opacity:0.5;">
					<path id="XMLID_2639_" style="fill:#F28F8F;" d="M193.858,128.198l2.841,0.906c-0.236,0.813-1.063,1.269-1.847,1.019
						C194.066,129.873,193.622,129.012,193.858,128.198z"/>
				</g>
				<g id="XMLID_2636_">
					<path id="XMLID_2637_" style="fill:#263238;" d="M202.881,115.533l-2.474-1.715c0.452-0.707,1.372-0.895,2.055-0.421
						C203.145,113.87,203.333,114.827,202.881,115.533z"/>
				</g>
				<g id="XMLID_2742_">
					<path id="XMLID_2743_" style="fill:#263238;" d="M190.119,115.042l-2.811,1.079c-0.33-0.771,0.032-1.638,0.809-1.936
						C188.892,113.888,189.789,114.272,190.119,115.042z"/>
				</g>
				<g id="XMLID_2634_">
					<path id="XMLID_2635_" style="fill:#263238;" d="M202.207,119.069c0.035,0.701-0.483,1.295-1.158,1.327
						c-0.675,0.032-1.25-0.51-1.285-1.211c-0.035-0.701,0.483-1.295,1.157-1.327C201.596,117.826,202.172,118.369,202.207,119.069z"
						/>
				</g>
				<g id="XMLID_2563_" style="opacity:0.5;">
					<polygon id="XMLID_2633_" style="fill:#F28F8F;" points="196.338,118.369 196.532,125.731 200.407,124.531 					"/>
				</g>
				<g id="XMLID_2521_" style="opacity:0.5;">
					<path id="XMLID_2562_" style="fill:#F28F8F;" d="M191.826,134.995c-3.128-0.41-9.562-2.259-10.565-4.803
						c0,0,0.334,1.599,2.256,3.246c1.923,1.647,8.309,3.504,8.309,3.504V134.995z"/>
				</g>
				<path id="XMLID_2520_" style="fill:#263238;" d="M183.561,96.288l-0.476-5.402c1.517-0.184,2.853,0.876,2.984,2.368
					C186.201,94.746,185.078,96.105,183.561,96.288z"/>
				<path id="XMLID_2519_" style="fill:#263238;" d="M183.271,96.834l-4.374-3.205c0.862-1.261,2.54-1.566,3.748-0.681
					C183.854,93.833,184.134,95.573,183.271,96.834z"/>
				<path id="XMLID_2497_" style="fill:#263238;" d="M179.609,120.615v5.116l0,0c1.923,0,3.482-1.559,3.482-3.482v-4.724
					L179.609,120.615z"/>
				<path id="XMLID_2727_" style="fill:#263238;" d="M193.533,96.404L193.533,96.404c9.554,0,17.298,7.745,17.298,17.298v2.243
					h-8.465c-3.941,0-7.275-2.912-7.806-6.817l0,0l-0.311,6.817l0,0c-3.248,0-5.958-2.483-6.24-5.719l-0.097-1.111l0,0
					c-0.308,3.857-3.529,6.83-7.398,6.83h-0.75l-0.867-12.222L193.533,96.404z"/>
			</g>
		</g>
		<g id="XMLID_2005_">
			<g id="XMLID_828_">
				<path id="XMLID_2262_" style="fill:#263238;" d="M311.118,338.322v-1.338c-0.527,1.569-2.974,8.324-6.686,11.708
					c-2.95,2.691-6.975,5.799-7.999,8.799c-1.065,3.12,5.601,4.169,8.357,3.68c3.203-0.567,7.346-2.384,9.602-5.155
					c1.586-1.948,2.595-4.258,3.728-5.79c1.132-1.532,3.742-3.243,4.355-5.016c0.336-0.974-0.063-3.107-0.536-4.91
					c-0.434-1.654-0.904-3.472-1.468-3.317c-0.002,0.202,0,1.02,0,1.02c-0.679,0.752-2.558,1.499-4.676,1.581
					C314.426,339.637,311.106,339.366,311.118,338.322z"/>
				<path id="XMLID_2260_" style="fill:#B16668;" d="M301.762,351.06c0.915-0.817,1.836-1.615,2.671-2.376
					c2.593-2.366,4.569-6.376,5.704-9.113c0.648-1.563,0.981-3.23,0.981-4.922v-5.331h9.354v8.677v0v0.001v0.231l-0.047,0.024
					c-0.45,1.944-4.742,7.114-7.181,10.485c-1.634,2.26-4.741,5.135-8.452,5.631C301.273,354.836,299.476,353.727,301.762,351.06z"
					/>
				<path id="XMLID_2632_" style="fill:#263238;" d="M274.634,329.102v-1.338c-0.527,1.569-2.975,8.324-6.686,11.708
					c-2.95,2.691-6.975,5.799-7.999,8.799c-1.065,3.12,5.601,4.169,8.357,3.68c3.203-0.567,7.346-2.384,9.602-5.155
					c1.586-1.948,2.596-4.258,3.728-5.79c1.132-1.532,3.742-3.243,4.355-5.016c0.336-0.974-0.063-3.107-0.536-4.91
					c-0.434-1.654-0.904-3.472-1.468-3.317c-0.001,0.202,0,1.02,0,1.02c-0.679,0.752-2.558,1.499-4.676,1.581
					C277.943,330.417,274.623,330.145,274.634,329.102z"/>
				<path id="XMLID_2265_" style="fill:#B16668;" d="M265.278,341.84c0.915-0.817,1.836-1.615,2.671-2.376
					c2.593-2.366,4.569-6.376,5.704-9.113c0.648-1.563,0.981-3.23,0.981-4.922v-5.331h9.353v8.678v0v0.001v0.231l-0.047,0.024
					c-0.45,1.944-4.742,7.114-7.181,10.485c-1.634,2.26-4.741,5.135-8.452,5.631C264.79,345.616,262.992,344.507,265.278,341.84z"/>
				<path id="XMLID_2258_" style="fill:#37474F;" d="M318.61,192.96c7.251,15.838-0.262,71.628-0.262,71.628
					c0.218,2.57,3.157,7.627,4.251,18.939c1.294,13.366-2.03,46.925-2.03,46.925s-4.331,2.832-9.452,0.376
					c0,0-8.914-50.543-10.59-63.832c-1.463-11.597-4.271-37.097-4.271-37.097l-7.98,37.035c0,0,2.048,6.497,2.528,11.446
					c0.757,7.817-6.816,44.21-6.816,44.21s-3.227,1.184-9.353,0.282c0,0-2.679-48.295-3.385-57.711
					c-1.186-15.814,3.014-65.155,5.915-74.516L318.61,192.96z"/>
				<path id="XMLID_2256_" style="fill:#263238;" d="M296.257,229.898l-2.354-14.71c0,0-9.96-2.063-14.477-6.31
					c0,0,4.739,5.895,11.778,7.825l2.644,11.325l-4.622,34.292L296.257,229.898z"/>
			</g>
			<g id="XMLID_2241_">
				<path id="XMLID_860_" style="fill:#B16668;" d="M291.376,137.515c-4.373-0.611-8.807,0.749-11.951,4.939
					c-3.144,4.19-15.263,39.436-15.263,39.436h10.907l14.947-29.538L291.376,137.515z"/>
				<path id="XMLID_2248_" style="fill:#F5F5F5;" d="M305.819,137.938L305.819,137.938c9.296,0.64,9.948,5.129,12.275,10.039
					c1.771,3.738,1.791,8.073,0.439,11.982l-6.478,18.741c0,0,3.033,7.332,6.555,14.259c-16.257,9.074-36.558,4.304-41.446-2.317
					c-0.207-1.405,1.05-12.385,1.823-19.557c-2.863-7.183-3.619-11.736-2.411-16.484c2.242-8.813,10.948-17.4,14.8-17.087
					L305.819,137.938z"/>
				<path id="XMLID_1956_" style="fill:#E6E6E6;" d="M301.661,194.718c5.34-1.264,8.728-6.666,7.317-11.97
					c-0.053-0.201-0.109-0.374-0.166-0.511c-1.045-2.513-3.292-2.183-3.292-2.183l0,0c2.107-1.397,3.57-3.577,4.064-6.057
					l1.973-9.91c0,0-3.665-11.642-3.293-15.63l9.329,0.539c0,0,0.469,0.326,1.207,0.839c1.018,3.273,0.866,6.846-0.267,10.124
					l-6.478,18.741c0,0,3.033,7.332,6.555,14.259c-11.981,6.687-26.151,5.852-34.737,2.301
					C290.655,196.313,296.938,195.836,301.661,194.718z"/>
			</g>
			<g id="XMLID_2340_">
				<path id="XMLID_2341_" style="fill:#B16668;" d="M340.047,184.407c0,0-9.226-18.16-15.323-32.054
					c-4.406-10.042-5.392-12.305-12.4-13.391l-2.478-0.384c-3.321,10.915-1.033,15.859,3.344,23.333l15.19,28.803
					C331.82,190.032,340.121,185.446,340.047,184.407z"/>
			</g>
			<g id="XMLID_827_">
				<g id="XMLID_2338_">
					<path id="XMLID_2339_" style="fill:#263238;" d="M295.411,130.234h6.55c9.682,0,17.53-7.849,17.53-17.53v-2.942
						c0-9.738-7.895-17.633-17.633-17.633h-6.344c-9.738,0-17.633,7.895-17.633,17.633v2.942
						C277.881,122.385,285.729,130.234,295.411,130.234z"/>
				</g>
				<g id="XMLID_2163_">
					<path id="XMLID_2164_" style="fill:#B16668;" d="M284.715,100.542c-2.198,1.299-4.914,6.826-4.646,18.413
						c0.227,9.821,3.41,12.246,5.009,12.946c1.598,0.699,4.681,0.274,7.678-0.226v5.894c0,0-4.142,4.811-3.881,7.513
						c0.261,2.703,5.98,3.341,9.856,0.701c3.876-2.64,6.36-6.659,6.36-6.659v-14.247c0,0,2.023,2.702,5.332,0.504
						c3.309-2.198,3.435-7.637,1.511-9.59c-1.924-1.953-6.07-1.334-6.843,1.364c0,0-4.779,0.174-11.144-3.322
						C287.584,110.338,285.138,104.35,284.715,100.542z"/>
				</g>
				<g id="XMLID_2154_">
					<path id="XMLID_2162_" style="fill:#263238;" d="M292.134,116.488c-0.036,0.708,0.488,1.308,1.169,1.34
						c0.681,0.032,1.262-0.515,1.298-1.223c0.036-0.708-0.488-1.308-1.169-1.34C292.75,115.233,292.169,115.78,292.134,116.488z"/>
				</g>
				<g id="XMLID_2152_">
					<path id="XMLID_2153_" style="fill:#9A4A4D;" d="M290.704,124.813l-2.868,0.915c0.238,0.821,1.073,1.282,1.865,1.029
						C290.493,126.504,290.943,125.634,290.704,124.813z"/>
				</g>
				<g id="XMLID_2147_">
					<path id="XMLID_2151_" style="fill:#263238;" d="M282.008,112.696l2.499-1.732c-0.456-0.714-1.385-0.904-2.075-0.426
						C281.742,111.017,281.552,111.982,282.008,112.696z"/>
				</g>
				<g id="XMLID_2144_">
					<path id="XMLID_2145_" style="fill:#263238;" d="M282.584,115.595c-0.036,0.708,0.488,1.307,1.169,1.34
						c0.681,0.032,1.262-0.515,1.298-1.223c0.035-0.708-0.488-1.307-1.169-1.34C283.201,114.34,282.62,114.887,282.584,115.595z"/>
				</g>
				<g id="XMLID_2142_">
					<polygon id="XMLID_2143_" style="fill:#9A4A4D;" points="288.616,114.888 288.42,122.322 284.507,121.11 					"/>
				</g>
				<g id="XMLID_2006_">
					<path id="XMLID_2141_" style="fill:#9A4A4D;" d="M292.756,131.675c3.158-0.414,9.656-2.281,10.668-4.849
						c0,0-0.337,1.614-2.278,3.278c-1.941,1.664-8.39,3.538-8.39,3.538V131.675z"/>
				</g>
				<path id="XMLID_1937_" style="fill:#263238;" d="M316.896,94.356c-4.055,1.696-3.141,5.177-1.444,9.232
					c1.697,4.055,3.532,7.15,7.588,5.454c4.055-1.697,5.968-6.359,4.271-10.415C325.614,94.572,320.951,92.66,316.896,94.356z"/>
				<path id="XMLID_2631_" style="fill:#263238;" d="M313.326,97.981l-1.42-6.772c1.894-0.463,3.747,0.679,4.139,2.549
					C316.437,95.629,315.22,97.519,313.326,97.981z"/>
			</g>
		</g>
		<g id="XMLID_858_">
			<rect id="XMLID_1798_" x="134.7" y="181.89" style="fill:#27DEBF;" width="211.951" height="48.526"/>
			<g id="XMLID_1980_">
				<path id="XMLID_2001_" style="fill:#FFFFFF;" d="M163.534,217.347c-0.152-0.115-0.28-0.324-0.381-0.629l-5.186-16.702
					c-0.025-0.076-0.038-0.178-0.038-0.305c0-0.33,0.203-0.495,0.61-0.495h2.936c0.305,0,0.52,0.051,0.648,0.152
					c0.127,0.102,0.216,0.28,0.267,0.534l3.317,11.668l3.775-10.028c0.101-0.254,0.216-0.438,0.343-0.553
					c0.127-0.114,0.33-0.171,0.61-0.171h1.64c0.279,0,0.477,0.051,0.591,0.152c0.115,0.102,0.222,0.292,0.324,0.572l3.737,10.028
					l3.356-11.668c0.076-0.254,0.165-0.432,0.267-0.534c0.101-0.101,0.318-0.152,0.648-0.152h2.936c0.406,0,0.61,0.166,0.61,0.495
					c0,0.127-0.013,0.229-0.038,0.305l-5.224,16.702c-0.102,0.33-0.223,0.546-0.362,0.647c-0.14,0.102-0.362,0.153-0.667,0.153
					h-2.212c-0.28,0-0.483-0.057-0.61-0.171c-0.128-0.115-0.255-0.324-0.381-0.629l-3.813-10.257l-3.813,10.257
					c-0.128,0.305-0.261,0.514-0.401,0.629c-0.14,0.114-0.35,0.171-0.629,0.171h-2.174
					C163.916,217.519,163.687,217.462,163.534,217.347z"/>
				<path id="XMLID_2007_" style="fill:#FFFFFF;" d="M190.34,217.08c-1.601-0.673-2.879-1.716-3.832-3.127
					c-0.954-1.411-1.43-3.171-1.43-5.281c0-3.279,0.877-5.77,2.631-7.473c1.754-1.703,4.245-2.555,7.474-2.555
					c3.203,0,5.624,0.826,7.264,2.478c1.64,1.652,2.46,4.042,2.46,7.168c0,0.89-0.407,1.335-1.22,1.335h-13.994
					c0,1.678,0.584,2.969,1.754,3.87c1.169,0.903,2.796,1.354,4.881,1.354c2.008,0,3.813-0.458,5.414-1.373
					c0.178-0.102,0.318-0.153,0.42-0.153c0.177,0,0.318,0.115,0.419,0.343l0.915,1.639c0.076,0.153,0.114,0.292,0.114,0.419
					c0,0.178-0.114,0.343-0.343,0.496c-1.042,0.636-2.167,1.106-3.374,1.41c-1.208,0.305-2.6,0.458-4.175,0.458
					C193.734,218.091,191.942,217.753,190.34,217.08z M200.483,206.804c0-1.576-0.438-2.809-1.315-3.699
					c-0.877-0.89-2.193-1.335-3.947-1.335c-1.779,0-3.146,0.457-4.099,1.373c-0.953,0.915-1.43,2.135-1.43,3.66H200.483z"/>
				<path id="XMLID_2011_" style="fill:#FFFFFF;" d="M208.967,217.175c-0.216-0.228-0.324-0.572-0.324-1.029v-23.145
					c0-0.483,0.108-0.839,0.324-1.068c0.216-0.229,0.578-0.343,1.087-0.343h2.021c0.508,0,0.877,0.114,1.106,0.343
					c0.229,0.229,0.343,0.585,0.343,1.068v23.145c0,0.457-0.108,0.801-0.324,1.029c-0.217,0.229-0.591,0.344-1.125,0.344h-2.021
					C209.545,217.519,209.182,217.404,208.967,217.175z"/>
				<path id="XMLID_2013_" style="fill:#FFFFFF;" d="M220.1,215.593c-1.894-1.664-2.841-4.048-2.841-7.15
					c0-1.932,0.432-3.634,1.297-5.109c0.864-1.474,2.103-2.625,3.717-3.451c1.614-0.826,3.501-1.239,5.663-1.239
					c1.602,0,2.961,0.152,4.08,0.457c1.118,0.305,2.16,0.801,3.127,1.487c0.229,0.152,0.343,0.318,0.343,0.495
					c0,0.152-0.064,0.331-0.191,0.534l-1.03,1.792c-0.152,0.254-0.292,0.381-0.419,0.381c-0.127,0-0.305-0.076-0.534-0.229
					c-0.788-0.482-1.57-0.845-2.345-1.086c-0.776-0.242-1.697-0.362-2.765-0.362c-1.906,0-3.406,0.566-4.499,1.697
					c-1.093,1.131-1.639,2.676-1.639,4.633c0,2.059,0.546,3.604,1.639,4.633c1.093,1.03,2.694,1.544,4.805,1.544
					c1.067,0,1.995-0.127,2.784-0.381c0.788-0.254,1.55-0.623,2.288-1.106c0.203-0.127,0.368-0.191,0.495-0.191
					c0.152,0,0.305,0.128,0.458,0.381l1.106,1.869c0.101,0.127,0.152,0.267,0.152,0.419c0,0.178-0.127,0.356-0.381,0.534
					c-1.017,0.661-2.11,1.15-3.279,1.468c-1.169,0.317-2.542,0.476-4.118,0.476C224.632,218.091,221.994,217.259,220.1,215.593z"/>
				<path id="XMLID_2015_" style="fill:#FFFFFF;" d="M241.492,215.479c-1.792-1.741-2.688-4.112-2.688-7.111
					c0-2.999,0.896-5.37,2.688-7.111c1.792-1.741,4.34-2.612,7.645-2.612c3.305,0,5.859,0.871,7.664,2.612
					c1.805,1.741,2.707,4.112,2.707,7.111c0,3-0.902,5.37-2.707,7.111c-1.805,1.741-4.36,2.612-7.664,2.612
					C245.832,218.091,243.284,217.22,241.492,215.479z M253.255,212.943c0.941-1.042,1.411-2.567,1.411-4.575
					c0-1.983-0.47-3.489-1.411-4.519c-0.94-1.029-2.313-1.544-4.118-1.544c-1.779,0-3.146,0.515-4.099,1.544
					c-0.953,1.03-1.43,2.536-1.43,4.519c0,1.983,0.477,3.502,1.43,4.557c0.953,1.055,2.319,1.582,4.099,1.582
					C250.942,214.506,252.314,213.986,253.255,212.943z"/>
				<path id="XMLID_2018_" style="fill:#FFFFFF;" d="M263.588,217.175c-0.229-0.228-0.344-0.572-0.344-1.029v-15.901
					c0-0.381,0.063-0.648,0.191-0.8c0.127-0.153,0.394-0.229,0.8-0.229h2.021c0.279,0,0.483,0.057,0.61,0.171
					c0.127,0.115,0.203,0.312,0.229,0.591l0.114,1.602c0.737-0.94,1.583-1.665,2.536-2.173c0.953-0.508,2.09-0.763,3.413-0.763
					c1.118,0,2.091,0.248,2.917,0.743c0.826,0.496,1.43,1.227,1.811,2.193c1.398-1.957,3.419-2.936,6.063-2.936
					c1.805,0,3.235,0.547,4.29,1.639c1.055,1.093,1.582,2.72,1.582,4.881v10.982c0,0.457-0.108,0.801-0.324,1.029
					c-0.217,0.229-0.591,0.344-1.125,0.344h-1.678c-0.509,0-0.877-0.114-1.106-0.344c-0.229-0.228-0.343-0.572-0.343-1.029v-10.715
					c0-1.169-0.248-2.008-0.744-2.517c-0.496-0.508-1.239-0.763-2.231-0.763c-1.043,0-1.888,0.343-2.536,1.029
					c-0.648,0.686-0.973,1.615-0.973,2.784v10.181c0,0.457-0.114,0.801-0.343,1.029c-0.229,0.229-0.598,0.344-1.106,0.344h-1.563
					c-0.509,0-0.877-0.114-1.106-0.344c-0.229-0.228-0.343-0.572-0.343-1.029v-10.905c0-1.068-0.223-1.849-0.667-2.345
					c-0.445-0.495-1.15-0.743-2.116-0.743c-1.093,0-1.983,0.362-2.669,1.087c-0.687,0.724-1.03,1.671-1.03,2.841v10.066
					c0,0.457-0.109,0.801-0.324,1.029c-0.216,0.229-0.591,0.344-1.125,0.344h-1.678
					C264.185,217.519,263.817,217.404,263.588,217.175z"/>
				<path id="XMLID_2021_" style="fill:#FFFFFF;" d="M298.63,217.08c-1.601-0.673-2.879-1.716-3.832-3.127
					c-0.954-1.411-1.43-3.171-1.43-5.281c0-3.279,0.877-5.77,2.631-7.473c1.754-1.703,4.245-2.555,7.474-2.555
					c3.203,0,5.624,0.826,7.264,2.478c1.64,1.652,2.46,4.042,2.46,7.168c0,0.89-0.407,1.335-1.22,1.335h-13.994
					c0,1.678,0.584,2.969,1.754,3.87c1.169,0.903,2.796,1.354,4.881,1.354c2.008,0,3.813-0.458,5.414-1.373
					c0.177-0.102,0.318-0.153,0.419-0.153c0.178,0,0.318,0.115,0.42,0.343l0.915,1.639c0.076,0.153,0.114,0.292,0.114,0.419
					c0,0.178-0.114,0.343-0.343,0.496c-1.042,0.636-2.167,1.106-3.375,1.41c-1.207,0.305-2.6,0.458-4.175,0.458
					C302.024,218.091,300.231,217.753,298.63,217.08z M308.773,206.804c0-1.576-0.438-2.809-1.315-3.699
					c-0.877-0.89-2.193-1.335-3.947-1.335c-1.779,0-3.146,0.457-4.099,1.373c-0.953,0.915-1.43,2.135-1.43,3.66H308.773z"/>
				<path id="XMLID_2024_" style="fill:#FFFFFF;" d="M316.17,215.955v-0.801c0-1.067,0.75-1.602,2.25-1.602h0.991
					c1.5,0,2.25,0.534,2.25,1.602v0.801c0,1.042-0.75,1.563-2.25,1.563h-0.991C316.92,217.519,316.17,216.998,316.17,215.955z
					 M316.99,209.988c-0.191-0.216-0.286-0.565-0.286-1.049l-0.229-15.938c0-0.483,0.108-0.839,0.324-1.068
					c0.216-0.229,0.578-0.343,1.087-0.343h2.097c0.508,0,0.87,0.114,1.087,0.343c0.216,0.229,0.324,0.585,0.324,1.068l-0.267,15.938
					c0,0.483-0.095,0.833-0.286,1.049c-0.191,0.216-0.54,0.324-1.049,0.324h-1.869C317.492,210.312,317.181,210.204,316.99,209.988z
					"/>
			</g>
		</g>
		<path id="XMLID_1800_" style="fill:#FFA8A7;" d="M134.699,190.653c-0.617,1.728-1.973,2.545-2.991,4.27
			c-1.018,1.726-1.414,6.855-0.288,8.998c1.126,2.142,4.159,5.054,8.368,5.367c1.49,0,2.834-0.273,4.084-1.134
			c0.556-0.382,1.057-0.849,1.468-1.384c0.438-0.57,0.593-1.201,0.84-1.87c0.02-0.053,0.041-0.108,0.084-0.145
			c0.047-0.04,0.112-0.049,0.174-0.059c0.435-0.07,0.863-0.232,1.194-0.522c0.331-0.29,0.554-0.719,0.537-1.159
			c-0.022-0.567-0.429-1.058-0.913-1.353c-0.484-0.295-1.044-0.435-1.584-0.606c-1.331-0.421-2.56-1.094-3.864-1.587
			c-4.657-1.761-7.109-4.292-7.109-4.292V190.653z"/>
		<path id="XMLID_1799_" style="fill:#B16668;" d="M346.658,192.206c0.626,1.754,2.002,2.582,3.036,4.334
			c1.034,1.751,1.435,6.957,0.292,9.131c-1.143,2.174-4.221,5.129-8.492,5.447c-3.202,0.238-5.869-2.035-6.494-4.2
			c-0.908-3.146,0.663-4.336,4.444-5.766c4.726-1.787,7.215-4.356,7.215-4.356V192.206z"/>
		<path id="XMLID_861_" style="fill:#B16668;" d="M253.999,177.67c5.597,0.913,7.208,4.219,7.208,4.219l-4.579,0
			c0,0-0.579,1.541,0.964,7.314c0.539,2.015-2.455,2.075-2.545,1.316c-0.541,1.245-4.475,2.98-7.415,1.028
			c-2.697-1.79-3.905-4.525-3.302-9.658C245.359,176.155,253.018,177.51,253.999,177.67z"/>
	</g>
</g>
</svg>
